<?xml version="1.0" encoding="UTF-8" standalone="no"?>
<svg
   xmlns:dc="http://purl.org/dc/elements/1.1/"
   xmlns:cc="http://creativecommons.org/ns#"
   xmlns:rdf="http://www.w3.org/1999/02/22-rdf-syntax-ns#"
   xmlns:svg="http://www.w3.org/2000/svg"
   xmlns="http://www.w3.org/2000/svg"
   xmlns:sodipodi="http://sodipodi.sourceforge.net/DTD/sodipodi-0.dtd"
   xmlns:inkscape="http://www.inkscape.org/namespaces/inkscape"
   id="ic_ztelos"
   width="24"
   height="24"
   viewBox="0 0 24 24"
   version="1.1"
   sodipodi:docname="ic-coin-ztelos.svg"
   inkscape:version="0.92.3 (2405546, 2018-03-11)">
  <metadata
     id="metadata1096">
    <rdf:RDF>
      <cc:Work
         rdf:about="">
        <dc:format>image/svg+xml</dc:format>
        <dc:type
           rdf:resource="http://purl.org/dc/dcmitype/StillImage" />
        <dc:title></dc:title>
      </cc:Work>
    </rdf:RDF>
  </metadata>
  <sodipodi:namedview
     pagecolor="#ffffff"
     bordercolor="#666666"
     borderopacity="1"
     objecttolerance="10"
     gridtolerance="10"
     guidetolerance="10"
     inkscape:pageopacity="0"
     inkscape:pageshadow="2"
     inkscape:window-width="1251"
     inkscape:window-height="769"
     id="namedview1094"
     showgrid="false"
     inkscape:zoom="19.666667"
     inkscape:cx="23.475175"
     inkscape:cy="12.051085"
     inkscape:window-x="29"
     inkscape:window-y="0"
     inkscape:window-maximized="1"
     inkscape:current-layer="ic_ztelos" />
  <defs
     id="defs1086">
    <style
       type="text/css"
       id="style1084">
            .cls-1{fill:#7d744b}.cls-2{fill:none}
        </style>
  </defs>
  <g
     data-name="Group 8932"
     id="Group_8932">
    <path
       style="fill:#7d744b"
       inkscape:connector-curvature="0"
       data-name="Path 18926"
       class="cls-1"
       d="M 12,2 A 10,10 0 1 0 22,12 10,10 0 0 0 12,2 Z m 0,19.25 A 9.25,9.25 0 1 1 21.25,12 9.25,9.25 0 0 1 12,21.25 Z"
       id="Path_18926" />
  </g>
  <path
     id="Rectangle_4542"
     d="M0 0h24v24H0z"
     class="cls-2"
     data-name="Rectangle 4542" />
  <path
     style="fill:#7d744b;fill-opacity:1;stroke-width:1.20938635"
     d="M 12.025391 3.4570312 A 8.5169487 8.5169487 0 0 0 3.5078125 11.974609 A 8.5169487 8.5169487 0 0 0 12.025391 20.492188 A 8.5169487 8.5169487 0 0 0 20.542969 11.974609 A 8.5169487 8.5169487 0 0 0 12.025391 3.4570312 z M 6.2832031 6.6347656 L 12.037109 6.6347656 L 12.037109 7.703125 L 8.3652344 12.144531 L 12.142578 12.144531 L 12.142578 13.478516 L 6.1777344 13.478516 L 6.1777344 12.410156 L 9.8496094 7.96875 L 6.2832031 7.96875 L 6.2832031 6.6347656 z M 12.894531 11.550781 L 14.951172 11.550781 L 17.009766 11.550781 L 16.789062 11.974609 C 16.668432 12.207904 16.061619 13.39301 15.439453 14.607422 C 14.817286 15.821833 14.304094 16.818893 14.298828 16.824219 C 14.293528 16.829519 14.289062 16.268599 14.289062 15.576172 L 14.289062 14.316406 L 13.591797 14.316406 L 12.894531 14.316406 L 12.894531 12.933594 L 12.894531 11.550781 z M 17.433594 11.550781 C 17.75098 11.549681 17.989406 11.87882 17.888672 12.179688 C 17.804852 12.430024 17.525495 12.575405 17.28125 12.496094 C 17.165305 12.458444 17.052214 12.367881 16.996094 12.263672 L 16.951172 12.177734 L 17.099609 11.876953 C 17.2571 11.558964 17.266662 11.551384 17.433594 11.550781 z M 18.146484 11.550781 L 18.310547 11.550781 L 18.472656 11.550781 L 18.472656 12.039062 L 18.472656 12.527344 L 18.310547 12.527344 L 18.146484 12.527344 L 18.146484 12.039062 L 18.146484 11.550781 z M 17.287109 12.6875 L 17.287109 13.175781 L 17.287109 13.666016 L 17.134766 13.666016 C 17.032898 13.666016 16.980314 13.654706 16.972656 13.634766 C 16.966414 13.616857 16.963311 13.402187 16.966797 13.154297 L 16.972656 12.701172 L 17.130859 12.693359 L 17.287109 12.6875 z M 16.695312 12.689453 C 16.701612 12.689453 16.705078 12.909285 16.705078 13.177734 L 16.705078 13.666016 L 16.554688 13.666016 L 16.404297 13.666016 L 16.404297 13.455078 L 16.404297 13.246094 L 16.542969 12.96875 C 16.619769 12.815547 16.68902 12.689453 16.695312 12.689453 z M 17.986328 12.689453 C 18.105386 12.691956 18.224313 12.74189 18.320312 12.837891 C 18.684956 13.202535 18.299353 13.804416 17.8125 13.630859 C 17.481262 13.512776 17.391935 13.066576 17.650391 12.824219 C 17.748418 12.732298 17.86727 12.686951 17.986328 12.689453 z M 18 13.849609 C 18.210232 13.855725 18.398327 14.009369 18.457031 14.251953 L 18.472656 14.316406 L 17.984375 14.316406 C 17.561068 14.316406 17.496094 14.31206 17.496094 14.28125 C 17.496094 14.153007 17.638469 13.963349 17.787109 13.894531 C 17.857935 13.86174 17.929923 13.847571 18 13.849609 z M 16.107422 13.851562 C 16.117222 13.851562 16.125 14.071395 16.125 14.339844 L 16.125 14.828125 L 15.962891 14.828125 L 15.798828 14.828125 L 15.798828 14.630859 C 15.798828 14.435473 15.801879 14.430487 15.945312 14.142578 C 16.024973 13.982657 16.097598 13.851563 16.107422 13.851562 z M 16.720703 13.863281 C 16.968686 13.810584 17.236529 13.960018 17.296875 14.240234 L 17.314453 14.316406 L 17.195312 14.316406 L 17.078125 14.316406 L 17.078125 14.537109 C 17.078125 14.756925 17.077141 14.759793 17.013672 14.785156 C 16.910156 14.826526 16.746815 14.830652 16.650391 14.794922 C 16.318257 14.671874 16.229819 14.228692 16.488281 13.986328 C 16.55784 13.921103 16.638042 13.880847 16.720703 13.863281 z M 16.605469 15.037109 C 16.726262 15.037109 16.763755 15.048621 16.859375 15.113281 C 17.018197 15.220682 17.0836 15.352228 17.072266 15.541016 C 17.056296 15.807053 16.860007 15.990158 16.591797 15.988281 C 16.520307 15.987782 16.430928 15.973771 16.392578 15.957031 C 16.354228 15.940291 16.283578 15.884377 16.236328 15.832031 C 16.082136 15.66121 16.066512 15.440253 16.193359 15.240234 C 16.280459 15.102894 16.414343 15.037109 16.605469 15.037109 z M 15.486328 15.041016 C 15.489428 15.036916 15.532851 15.054868 15.582031 15.080078 C 15.756033 15.169298 15.845703 15.316635 15.845703 15.513672 C 15.845703 15.709364 15.756678 15.857753 15.585938 15.945312 C 15.469821 16.004863 15.259207 16.002936 15.142578 15.941406 C 15.094638 15.916096 15.056641 15.890093 15.056641 15.882812 C 15.056641 15.871752 15.469017 15.063718 15.486328 15.041016 z M 15.472656 16.199219 C 15.59187 16.19655 15.709576 16.241862 15.806641 16.333984 C 16.130002 16.640887 15.911093 17.174964 15.460938 17.175781 C 15.421688 17.175851 15.333063 17.146488 15.263672 17.111328 C 14.962402 16.958703 14.899933 16.586395 15.136719 16.349609 C 15.233175 16.253153 15.353443 16.201888 15.472656 16.199219 z M 16.195312 16.199219 L 16.357422 16.199219 L 16.521484 16.199219 L 16.515625 16.681641 L 16.507812 17.164062 L 16.351562 17.169922 L 16.195312 17.177734 L 16.195312 16.6875 L 16.195312 16.199219 z M 16.775391 16.199219 L 16.927734 16.199219 L 17.078125 16.199219 L 17.078125 16.6875 L 17.078125 17.175781 L 16.927734 17.175781 L 16.775391 17.175781 L 16.775391 16.6875 L 16.775391 16.199219 z M 14.753906 16.490234 L 14.753906 16.832031 L 14.753906 17.175781 L 14.603516 17.175781 C 14.457545 17.175781 14.451172 17.173757 14.451172 17.117188 C 14.451172 17.062558 14.601193 16.74 14.707031 16.566406 L 14.753906 16.490234 z M 14.289062 17.361328 L 14.439453 17.361328 L 14.591797 17.361328 L 14.591797 17.837891 L 14.591797 18.314453 L 14.439453 18.314453 L 14.289062 18.314453 L 14.289062 17.837891 L 14.289062 17.361328 z M 16.632812 17.363281 C 16.720077 17.370452 16.805467 17.396999 16.871094 17.443359 C 17.008093 17.540139 17.066406 17.661573 17.066406 17.853516 C 17.066406 17.988538 17.057684 18.019736 16.996094 18.107422 C 16.893836 18.252918 16.775189 18.313983 16.587891 18.314453 C 16.459524 18.314776 16.419171 18.302594 16.330078 18.246094 C 16.212123 18.171284 16.101336 17.984732 16.101562 17.861328 C 16.101913 17.669417 16.213235 17.493799 16.388672 17.404297 C 16.457833 17.369012 16.545548 17.35611 16.632812 17.363281 z M 15.451172 17.365234 C 15.632423 17.378344 15.755003 17.463394 15.837891 17.632812 C 15.890211 17.739753 15.896316 17.776829 15.884766 17.888672 C 15.857796 18.149954 15.673113 18.313774 15.402344 18.314453 C 15.272522 18.314779 15.23464 18.303721 15.140625 18.244141 C 15.058305 18.191931 15.014967 18.143614 14.972656 18.052734 C 14.875986 17.845088 14.914789 17.645164 15.080078 17.484375 C 15.179698 17.387475 15.283472 17.353103 15.451172 17.365234 z "
     id="path1098" />
</svg>
