<?xml version="1.0" encoding="UTF-8" standalone="no"?>
<svg
   xmlns:dc="http://purl.org/dc/elements/1.1/"
   xmlns:cc="http://creativecommons.org/ns#"
   xmlns:rdf="http://www.w3.org/1999/02/22-rdf-syntax-ns#"
   xmlns:svg="http://www.w3.org/2000/svg"
   xmlns="http://www.w3.org/2000/svg"
   xmlns:sodipodi="http://sodipodi.sourceforge.net/DTD/sodipodi-0.dtd"
   xmlns:inkscape="http://www.inkscape.org/namespaces/inkscape"
   id="ic_piv"
   width="24"
   height="24"
   viewBox="0 0 24 24"
   version="1.1"
   sodipodi:docname="ic-coin-piv.svg"
   inkscape:version="0.92.3 (2405546, 2018-03-11)">
  <metadata
     id="metadata74">
    <rdf:RDF>
      <cc:Work
         rdf:about="">
        <dc:format>image/svg+xml</dc:format>
        <dc:type
           rdf:resource="http://purl.org/dc/dcmitype/StillImage" />
        <dc:title></dc:title>
      </cc:Work>
    </rdf:RDF>
  </metadata>
  <sodipodi:namedview
     pagecolor="#ffffff"
     bordercolor="#666666"
     borderopacity="1"
     objecttolerance="10"
     gridtolerance="10"
     guidetolerance="10"
     inkscape:pageopacity="0"
     inkscape:pageshadow="2"
     inkscape:window-width="1251"
     inkscape:window-height="769"
     id="namedview72"
     showgrid="false"
     inkscape:zoom="15.114407"
     inkscape:cx="16.814748"
     inkscape:cy="11.221497"
     inkscape:window-x="29"
     inkscape:window-y="0"
     inkscape:window-maximized="1"
     inkscape:current-layer="ic_piv" />
  <defs
     id="defs64">
    <style
       type="text/css"
       id="style62">
            .cls-1{fill:#7d744b}.cls-2{fill:none}
        </style>
  </defs>
  <path
     id="Rectangle_4543"
     d="M0 0h24v24H0z"
     class="cls-2"
     data-name="Rectangle 4543" />
  <g
     id="g969">
    <g
       data-name="Group 8935"
       id="Group_8935">
      <g
         data-name="Group 8934"
         id="Group_8934">
        <path
           data-name="Path 18928"
           class="cls-1"
           d="M12 2a10 10 0 1 0 10 10A10 10 0 0 0 12 2zm0 19.25A9.25 9.25 0 1 1 21.25 12 9.25 9.25 0 0 1 12 21.25z"
           id="Path_18928" />
      </g>
    </g>
    <path
       style="stroke-width:1.72496402;fill:#7d744b;fill-opacity:1"
       d="M 12.046875 3.546875 A 8.4735069 8.4735069 0 0 0 3.5722656 12.019531 A 8.4735069 8.4735069 0 0 0 12.046875 20.494141 A 8.4735069 8.4735069 0 0 0 20.519531 12.019531 A 8.4735069 8.4735069 0 0 0 12.046875 3.546875 z M 7.5429688 6.8945312 L 10.746094 6.8945312 L 13.949219 6.8945312 L 13.607422 7.5546875 C 13.419616 7.9178957 12.472535 9.7616705 11.503906 11.652344 C 10.535278 13.543017 9.7367146 15.097176 9.7285156 15.105469 C 9.7203156 15.113769 9.7128906 14.238171 9.7128906 13.160156 L 9.7128906 11.199219 L 8.6269531 11.199219 L 7.5429688 11.199219 L 7.5429688 9.046875 L 7.5429688 6.8945312 z M 14.609375 6.8945312 C 15.103502 6.8927512 15.473235 7.4065909 15.316406 7.875 C 15.185916 8.2647388 14.751351 8.4906635 14.371094 8.3671875 C 14.190584 8.3085723 14.017059 8.1661462 13.929688 8.0039062 L 13.859375 7.8710938 L 14.089844 7.4042969 C 14.335037 6.9092322 14.349485 6.8954696 14.609375 6.8945312 z M 15.720703 6.8945312 L 15.972656 6.8945312 L 16.226562 6.8945312 L 16.226562 7.6542969 L 16.226562 8.4140625 L 15.972656 8.4140625 L 15.720703 8.4140625 L 15.720703 7.6542969 L 15.720703 6.8945312 z M 14.380859 8.6640625 L 14.380859 9.4257812 L 14.380859 10.1875 L 14.144531 10.1875 C 13.985937 10.1875 13.902546 10.171695 13.890625 10.140625 C 13.880825 10.115165 13.877382 9.7781234 13.882812 9.390625 L 13.892578 8.6855469 L 14.136719 8.6738281 L 14.380859 8.6640625 z M 13.458984 8.6679688 C 13.468784 8.6679688 13.476562 9.0097961 13.476562 9.4277344 L 13.476562 10.1875 L 13.242188 10.1875 L 13.005859 10.1875 L 13.005859 9.8613281 L 13.005859 9.5351562 L 13.222656 9.1015625 C 13.34222 8.8630468 13.449186 8.6679687 13.458984 8.6679688 z M 15.470703 8.6679688 C 15.65606 8.6718643 15.840777 8.7489801 15.990234 8.8984375 C 16.557936 9.4661391 15.959134 10.404971 15.201172 10.134766 C 14.685479 9.9509193 14.544885 9.2542699 14.947266 8.8769531 C 15.09988 8.7338444 15.285346 8.6640732 15.470703 8.6679688 z M 15.492188 10.474609 C 15.819491 10.484131 16.111731 10.723892 16.203125 11.101562 L 16.228516 11.199219 L 15.466797 11.199219 C 14.807765 11.199219 14.707031 11.192572 14.707031 11.144531 C 14.707031 10.944875 14.926791 10.652062 15.158203 10.544922 C 15.26847 10.49387 15.383086 10.471436 15.492188 10.474609 z M 12.544922 10.476562 C 12.560222 10.476562 12.572266 10.81839 12.572266 11.236328 L 12.572266 11.996094 L 12.318359 11.996094 L 12.064453 11.996094 L 12.064453 11.689453 C 12.064453 11.385265 12.06773 11.377923 12.291016 10.929688 C 12.415034 10.680713 12.529627 10.476562 12.544922 10.476562 z M 13.693359 10.480469 C 14.01581 10.497063 14.320147 10.718482 14.398438 11.082031 L 14.423828 11.199219 L 14.240234 11.199219 L 14.054688 11.199219 L 14.054688 11.544922 C 14.054688 11.887145 14.053886 11.890202 13.955078 11.929688 C 13.793918 11.994087 13.540744 12.000923 13.390625 11.945312 C 12.873537 11.753742 12.734329 11.062873 13.136719 10.685547 C 13.299158 10.533226 13.499889 10.470512 13.693359 10.480469 z M 13.320312 12.322266 C 13.50837 12.322266 13.565977 12.338781 13.714844 12.439453 C 13.962109 12.606662 14.064521 12.813505 14.046875 13.107422 C 14.022005 13.521605 13.716394 13.80761 13.298828 13.804688 C 13.187523 13.803909 13.047987 13.781919 12.988281 13.755859 C 12.928581 13.729799 12.819655 13.642042 12.746094 13.560547 C 12.506038 13.294602 12.480246 12.950073 12.677734 12.638672 C 12.813335 12.424851 13.022755 12.322266 13.320312 12.322266 z M 11.578125 12.328125 C 11.583025 12.321725 11.649999 12.349422 11.726562 12.388672 C 11.997461 12.52757 12.136719 12.757693 12.136719 13.064453 C 12.136719 13.369119 11.998241 13.600008 11.732422 13.736328 C 11.551643 13.829038 11.224544 13.826339 11.042969 13.730469 C 10.968339 13.691069 10.908203 13.650012 10.908203 13.638672 C 10.908203 13.621452 11.551174 12.363469 11.578125 12.328125 z M 12.679688 14.130859 L 12.933594 14.130859 L 13.189453 14.130859 L 13.177734 14.882812 L 13.167969 15.632812 L 12.923828 15.644531 L 12.679688 15.654297 L 12.679688 14.892578 L 12.679688 14.130859 z M 13.585938 14.130859 L 13.820312 14.130859 L 14.054688 14.130859 L 14.054688 14.890625 L 14.054688 15.650391 L 13.820312 15.650391 L 13.585938 15.650391 L 13.585938 14.890625 L 13.585938 14.130859 z M 11.554688 14.132812 C 11.740287 14.128658 11.927008 14.19837 12.078125 14.341797 C 12.581554 14.819603 12.237938 15.649118 11.537109 15.650391 C 11.475999 15.6505 11.338502 15.605511 11.230469 15.550781 C 10.761433 15.313164 10.664559 14.733878 11.033203 14.365234 C 11.183373 14.215065 11.369088 14.136967 11.554688 14.132812 z M 10.4375 14.583984 L 10.4375 15.117188 L 10.4375 15.650391 L 10.201172 15.650391 C 9.9739149 15.650391 9.9667969 15.648637 9.9667969 15.560547 C 9.9667969 15.475487 10.198505 14.973386 10.363281 14.703125 L 10.4375 14.583984 z M 9.7128906 15.939453 L 9.9492188 15.939453 L 10.183594 15.939453 L 10.183594 16.681641 L 10.183594 17.423828 L 9.9492188 17.423828 L 9.7128906 17.423828 L 9.7128906 16.681641 L 9.7128906 15.939453 z M 13.363281 15.943359 C 13.49914 15.954525 13.632203 15.996179 13.734375 16.068359 C 13.947663 16.219031 14.037109 16.408202 14.037109 16.707031 C 14.037109 16.917242 14.023684 16.967001 13.927734 17.103516 C 13.768531 17.330034 13.584566 17.423096 13.292969 17.423828 C 13.09312 17.424331 13.031284 17.408276 12.892578 17.320312 C 12.708937 17.203851 12.534805 16.912826 12.535156 16.720703 C 12.535703 16.421922 12.70929 16.145201 12.982422 16.005859 C 13.090096 15.950928 13.227422 15.932194 13.363281 15.943359 z M 11.523438 15.947266 C 11.80562 15.967676 11.995953 16.09952 12.125 16.363281 C 12.20646 16.529773 12.217189 16.589547 12.199219 16.763672 C 12.157239 17.170452 11.868817 17.42277 11.447266 17.423828 C 11.245151 17.424335 11.185433 17.40728 11.039062 17.314453 C 10.910898 17.233173 10.84517 17.157113 10.779297 17.015625 C 10.628789 16.692349 10.686023 16.381185 10.943359 16.130859 C 11.098452 15.97999 11.262352 15.928381 11.523438 15.947266 z "
       id="path158" />
  </g>
</svg>
