<?xml version="1.0" encoding="UTF-8" standalone="no"?>
<svg
   xmlns:dc="http://purl.org/dc/elements/1.1/"
   xmlns:cc="http://creativecommons.org/ns#"
   xmlns:rdf="http://www.w3.org/1999/02/22-rdf-syntax-ns#"
   xmlns:svg="http://www.w3.org/2000/svg"
   xmlns="http://www.w3.org/2000/svg"
   xmlns:sodipodi="http://sodipodi.sourceforge.net/DTD/sodipodi-0.dtd"
   xmlns:inkscape="http://www.inkscape.org/namespaces/inkscape"
   id="ic_empty_masternode"
   width="100"
   height="100"
   viewBox="0 0 100 100"
   version="1.1"
   sodipodi:docname="img-empty-masternode.svg"
   inkscape:version="0.92.3 (2405546, 2018-03-11)">
  <metadata
     id="metadata5405">
    <rdf:RDF>
      <cc:Work
         rdf:about="">
        <dc:format>image/svg+xml</dc:format>
        <dc:type
           rdf:resource="http://purl.org/dc/dcmitype/StillImage" />
        <dc:title></dc:title>
      </cc:Work>
    </rdf:RDF>
  </metadata>
  <sodipodi:namedview
     pagecolor="#ffffff"
     bordercolor="#666666"
     borderopacity="1"
     objecttolerance="10"
     gridtolerance="10"
     guidetolerance="10"
     inkscape:pageopacity="0"
     inkscape:pageshadow="2"
     inkscape:window-width="1251"
     inkscape:window-height="769"
     id="namedview5403"
     showgrid="false"
     inkscape:zoom="4.72"
     inkscape:cx="92.372881"
     inkscape:cy="52.906761"
     inkscape:window-x="29"
     inkscape:window-y="0"
     inkscape:window-maximized="1"
     inkscape:current-layer="ic_empty_masternode" />
  <defs
     id="defs5387">
    <style
       type="text/css"
       id="style5385">
            .cls-1{fill:#d6d6d6}.cls-2{fill:#666}.cls-3{fill:none}
        </style>
  </defs>
  <g
     id="Group_9022"
     data-name="Group 9022">
    <g
       id="Group_9020"
       data-name="Group 9020">
      <circle
         id="Ellipse_615"
         cx="8.4"
         cy="8.4"
         r="8.4"
         class="cls-1"
         data-name="Ellipse 615"
         transform="translate(43.6 8)"
         style="fill:#7d744b;fill-opacity:1" />
      <circle
         id="Ellipse_616"
         cx="8.4"
         cy="8.4"
         r="8.4"
         class="cls-1"
         data-name="Ellipse 616"
         transform="translate(77.2 71)"
         style="fill:#7d744b;fill-opacity:1" />
      <circle
         id="Ellipse_617"
         cx="8.4"
         cy="8.4"
         r="8.4"
         class="cls-1"
         data-name="Ellipse 617"
         transform="translate(10 71)"
         style="fill:#7d744b;fill-opacity:1" />
      <g
         id="Group_9019"
         data-name="Group 9019">
        <path
           id="Path_18976"
           d="M39.2 53.154V71h-8V36.346l20.8 16.9 20.8-16.9V71h-8V53.154L52 63.555"
           class="cls-1"
           data-name="Path 18976"
           style="fill:#7d744b;fill-opacity:1" />
      </g>
    </g>
    <g
       id="Group_9021"
       data-name="Group 9021">
      <path
         id="Path_18977"
         d="M30.2 34.245V72h10V55.255l3.881 3.154 1.261-1.553-7.143-5.8V70h-6V38.447L52 54.534l19.8-16.087V52h2V34.245L52 51.958z"
         class="cls-2"
         data-name="Path 18977"
         style="fill:#ceb347;fill-opacity:1" />
      <path
         id="Path_18978"
         d="M71.8 70h-6V51.053L52 62.267l-3.7-3.01-1.264 1.553L52 64.843l11.8-9.587V72h10v-8h-2z"
         class="cls-2"
         data-name="Path 18978"
         style="fill:#ceb347;fill-opacity:1" />
      <path
         id="Rectangle_4673"
         d="M0 0h2v4H0z"
         class="cls-2"
         data-name="Rectangle 4673"
         transform="translate(71.8 56)"
         style="fill:#ceb347;fill-opacity:1" />
      <path
         id="Path_18979"
         d="M87.356 70.17A38.409 38.409 0 0 0 90.8 54.2a39.056 39.056 0 0 0-29.408-37.645c0-.052.008-.1.008-.155a9.4 9.4 0 0 0-18.8 0c0 .052.007.1.008.154A38.787 38.787 0 0 0 16.645 70.17a9.4 9.4 0 1 0 10.122 13.492 38.761 38.761 0 0 0 50.466 0A9.395 9.395 0 1 0 87.356 70.17zM52 9a7.4 7.4 0 1 1-7.4 7.4A7.409 7.409 0 0 1 52 9zM18.4 86.8a7.4 7.4 0 1 1 7.4-7.4 7.409 7.409 0 0 1-7.4 7.4zM52 91a36.732 36.732 0 0 1-24.488-9.332 9.352 9.352 0 0 0-8.735-11.649 36.794 36.794 0 0 1 24.081-51.467 9.389 9.389 0 0 0 18.284 0A37.047 37.047 0 0 1 88.8 54.2a36.419 36.419 0 0 1-3.577 15.819 9.352 9.352 0 0 0-8.735 11.649A36.734 36.734 0 0 1 52 91zm33.6-4.2a7.4 7.4 0 1 1 7.4-7.4 7.409 7.409 0 0 1-7.4 7.4z"
         class="cls-2"
         data-name="Path 18979"
         style="fill:#ceb347;fill-opacity:1" />
    </g>
  </g>
  <path
     id="Rectangle_4674"
     d="M0 0h100v100H0z"
     class="cls-3"
     data-name="Rectangle 4674" />
</svg>
