<?xml version="1.0" encoding="UTF-8" standalone="no"?>
<svg
   xmlns:dc="http://purl.org/dc/elements/1.1/"
   xmlns:cc="http://creativecommons.org/ns#"
   xmlns:rdf="http://www.w3.org/1999/02/22-rdf-syntax-ns#"
   xmlns:svg="http://www.w3.org/2000/svg"
   xmlns="http://www.w3.org/2000/svg"
   xmlns:sodipodi="http://sodipodi.sourceforge.net/DTD/sodipodi-0.dtd"
   xmlns:inkscape="http://www.inkscape.org/namespaces/inkscape"
   id="ic_dark_staking_on"
   width="100"
   height="100"
   viewBox="0 0 100 100"
   version="1.1"
   sodipodi:docname="img-empty-dark-staking-on.svg"
   inkscape:version="0.92.3 (2405546, 2018-03-11)">
  <metadata
     id="metadata10597">
    <rdf:RDF>
      <cc:Work
         rdf:about="">
        <dc:format>image/svg+xml</dc:format>
        <dc:type
           rdf:resource="http://purl.org/dc/dcmitype/StillImage" />
        <dc:title></dc:title>
      </cc:Work>
    </rdf:RDF>
  </metadata>
  <sodipodi:namedview
     pagecolor="#ffffff"
     bordercolor="#666666"
     borderopacity="1"
     objecttolerance="10"
     gridtolerance="10"
     guidetolerance="10"
     inkscape:pageopacity="0"
     inkscape:pageshadow="2"
     inkscape:window-width="1251"
     inkscape:window-height="769"
     id="namedview10595"
     showgrid="false"
     inkscape:zoom="4.72"
     inkscape:cx="97.555179"
     inkscape:cy="49.757471"
     inkscape:window-x="29"
     inkscape:window-y="0"
     inkscape:window-maximized="1"
     inkscape:current-layer="ic_dark_staking_on" />
  <defs
     id="defs10581">
    <style
       type="text/css"
       id="style10579">
            .cls-1{fill:#413d4a}.cls-2{fill:#a09ea5}.cls-3{fill:none}
        </style>
  </defs>
  <g
     id="Group_9053"
     data-name="Group 9053">
    <g
       id="Group_9051"
       data-name="Group 9051">
      <ellipse
         id="Ellipse_640"
         cx="12"
         cy="4"
         class="cls-1"
         data-name="Ellipse 640"
         rx="12"
         ry="4"
         transform="translate(68 52)"
         style="fill:#ceb347;fill-opacity:1" />
      <ellipse
         id="Ellipse_641"
         cx="12"
         cy="4"
         class="cls-1"
         data-name="Ellipse 641"
         rx="12"
         ry="4"
         transform="translate(52 64)"
         style="fill:#ceb347;fill-opacity:1" />
      <path
         id="Rectangle_4706"
         d="M0 0h14v14H0z"
         class="cls-1"
         data-name="Rectangle 4706"
         transform="translate(32 24)"
         style="fill:#ceb347;fill-opacity:1" />
    </g>
    <g
       id="Group_9052"
       data-name="Group 9052">
      <path
         id="Rectangle_4707"
         d="M0 0h2v4H0z"
         class="cls-2"
         data-name="Rectangle 4707"
         transform="translate(12 60)"
         style="fill:#7d744b;fill-opacity:1" />
      <path
         id="Path_19001"
         d="M92.046 57.994A2.767 2.767 0 0 0 93 56c0-3.283-6.54-5-13-5s-13 1.717-13 5a2.767 2.767 0 0 0 .954 1.994 2.573 2.573 0 0 0 0 4 3.171 3.171 0 0 0-.774 1.151q-.58-.052-1.18-.085V39h5V23H52.644A8.993 8.993 0 1 0 39 11.9 8.994 8.994 0 1 0 25.356 23H7v16h5v17h2V39h50v24c-6.46 0-13 1.717-13 5a2.767 2.767 0 0 0 .954 1.994 2.573 2.573 0 0 0 0 4A3.325 3.325 0 0 0 51.226 75H14v-7h-2v9h39.23a3.369 3.369 0 0 0 .724.994 2.573 2.573 0 0 0 0 4 2.573 2.573 0 0 0 0 4A2.768 2.768 0 0 0 51 88c0 3.283 6.54 5 13 5 5.874 0 11.8-1.424 12.826-4.15 1.042.093 2.106.15 3.174.15 6.46 0 13-1.717 13-5a2.768 2.768 0 0 0-.954-2.006 2.573 2.573 0 0 0 0-4 2.573 2.573 0 0 0 0-4 2.573 2.573 0 0 0 0-4 2.573 2.573 0 0 0 0-4 2.573 2.573 0 0 0 0-4 2.573 2.573 0 0 0 0-4zM31 37H9V25h22zm-7-21a7 7 0 0 1 14 0v7h-7a7.008 7.008 0 0 1-7-7zm21 21H33V25h12zm-5-14v-7a7 7 0 1 1 7 7zm7 14V25h22v12H47zm4 39a2.311 2.311 0 0 0 .061.515A2.2 2.2 0 0 1 51 76zm13 15c-7.117 0-11-1.982-11-3 0-.241.247-.539.678-.849C56.179 88.37 60.1 89 64 89s7.821-.63 10.322-1.849c.431.31.678.608.678.849 0 1.018-3.883 3-11 3zm0-4c-7.117 0-11-1.982-11-3 0-.241.247-.539.678-.849C56.179 84.37 60.1 85 64 85s7.821-.63 10.322-1.849c.431.31.678.608.678.849 0 1.018-3.883 3-11 3zm0-4c-7.117 0-11-1.982-11-3 0-.241.247-.539.678-.849C56.179 80.37 60.1 81 64 81s7.821-.63 10.322-1.849c.431.31.678.608.678.849 0 1.018-3.883 3-11 3zm0-4c-7.117 0-11-1.982-11-3 0-.241.247-.539.678-.849C56.179 76.37 60.1 77 64 77s7.821-.63 10.322-1.849c.431.31.678.608.678.849 0 1.018-3.883 3-11 3zm0-4c-7.117 0-11-1.982-11-3 0-.241.247-.539.678-.849C56.179 72.37 60.1 73 64 73s7.821-.63 10.322-1.849c.431.31.678.608.678.849 0 1.018-3.883 3-11 3zm0-4c-7.117 0-11-1.982-11-3s3.883-3 11-3 11 1.982 11 3-3.883 3-11 3zm16 16c-1.207 0-2.3-.068-3.313-.168a3.446 3.446 0 0 0-.641-.838 3.219 3.219 0 0 0 .781-1.151c1.041.1 2.1.157 3.173.157 3.9 0 7.821-.63 10.322-1.849.431.31.678.608.678.849 0 1.018-3.883 3-11 3zm0-4c-1.207 0-2.3-.068-3.313-.168a3.446 3.446 0 0 0-.641-.838 3.219 3.219 0 0 0 .781-1.151c1.041.1 2.1.157 3.173.157 3.9 0 7.821-.63 10.322-1.849.431.31.678.608.678.849 0 1.018-3.883 3-11 3zm0-4c-1.207 0-2.3-.068-3.313-.168a3.446 3.446 0 0 0-.641-.838 3.219 3.219 0 0 0 .781-1.151c1.041.1 2.1.157 3.173.157 3.9 0 7.821-.63 10.322-1.849.431.31.678.608.678.849 0 1.018-3.883 3-11 3zm0-4c-1.207 0-2.3-.068-3.313-.168a3.446 3.446 0 0 0-.641-.838 3.219 3.219 0 0 0 .781-1.151c1.041.1 2.1.157 3.173.157 3.9 0 7.821-.63 10.322-1.849.431.31.678.608.678.849 0 1.018-3.883 3-11 3zm0-4c-1.207 0-2.3-.068-3.313-.168a3.446 3.446 0 0 0-.641-.838 3.219 3.219 0 0 0 .781-1.151c1.041.1 2.1.157 3.173.157 3.9 0 7.821-.63 10.322-1.849.431.31.678.608.678.849 0 1.018-3.883 3-11 3zm0-4c-1.2 0-2.287-.067-3.3-.166-.621-1.162-2.175-2.062-4.213-2.7A31.139 31.139 0 0 0 80 65c3.9 0 7.821-.63 10.322-1.849.431.31.678.608.678.849 0 1.018-3.883 3-11 3zm-10.632-3.583a2.722 2.722 0 0 1 .31-.266 13.563 13.563 0 0 0 1.826.7 26.483 26.483 0 0 0-2.136-.434zM80 63c-7.117 0-11-1.982-11-3 0-.241.247-.539.678-.849C72.179 60.37 76.1 61 80 61s7.821-.63 10.322-1.849c.431.31.678.608.678.849 0 1.018-3.883 3-11 3zm0-4c-7.117 0-11-1.982-11-3s3.883-3 11-3 11 1.982 11 3-3.883 3-11 3z"
         class="cls-2"
         data-name="Path 19001"
         style="fill:#7d744b;fill-opacity:1" />
    </g>
  </g>
  <path
     id="Rectangle_4709"
     d="M0 0h100v100H0z"
     class="cls-3"
     data-name="Rectangle 4709" />
  <path
     style="fill:#7d744b;fill-opacity:1;stroke-width:0.09849041"
     d="m 32.609127,69.268927 v -2.019053 h 0.640187 0.640188 v 2.019053 2.019054 h -0.640188 -0.640187 z m 3.609189,1.722585 c -0.348845,-0.221231 -0.528457,-0.427438 -0.707753,-0.812546 -0.40966,-0.879907 -0.25163,-1.728452 0.448794,-2.409802 0.422138,-0.410641 0.866126,-0.551444 1.576763,-0.500041 0.76806,0.05556 1.283722,0.411894 1.634967,1.129811 0.221713,0.453166 0.252069,0.616034 0.203154,1.089975 -0.114273,1.107194 -0.895519,1.794572 -2.042915,1.797452 -0.550128,0.0014 -0.714615,-0.04219 -1.11301,-0.294849 z m 5.042464,0.01234 c -0.499841,-0.316992 -0.969807,-1.108218 -0.968852,-1.631147 0.0015,-0.813235 0.469714,-1.562806 1.213139,-1.942073 0.586144,-0.299028 1.494126,-0.224409 2.05032,0.168499 0.580537,0.410104 0.823344,0.921816 0.823344,1.735182 0,0.572163 -0.03842,0.710984 -0.299568,1.082559 -0.433325,0.616547 -0.931143,0.867498 -1.724826,0.869491 -0.54396,0.0014 -0.71602,-0.04309 -1.093557,-0.282511 z m -7.96222,-4.790093 c 0,-0.231512 0.633341,-1.597232 1.081837,-2.332843 l 0.197801,-0.32443 3.94e-4,1.452733 3.94e-4,1.452734 h -0.640187 c -0.618561,0 -0.640188,-0.0084 -0.640188,-0.248194 z m 3.440304,-0.02266 c -1.276644,-0.646757 -1.538358,-2.227223 -0.534966,-3.230616 0.817477,-0.817476 2.018113,-0.844352 2.840748,-0.06359 1.370258,1.300515 0.438834,3.561039 -1.468716,3.564503 -0.166337,2.96e-4 -0.543017,-0.121332 -0.837066,-0.270299 z m 3.946476,-1.79295 v -2.072798 h 0.691431 0.691432 l -0.02662,2.043676 -0.02662,2.043676 -0.66481,0.02912 -0.664811,0.02912 z m 2.46226,-0.0045 v -2.068298 h 0.640188 0.640188 v 2.068298 2.068299 H 43.787788 43.1476 Z M 32.609127,59.682528 v -5.334897 h -2.954712 -2.954713 v -5.86018 -5.860179 h 8.718263 8.718262 l -0.929418,1.79745 c -0.51118,0.988598 -3.086521,6.007915 -5.72298,11.154039 -2.636458,5.146124 -4.811818,9.375055 -4.834132,9.397627 -0.02231,0.02257 -0.04057,-2.359667 -0.04057,-5.29386 z m 3.619522,1.552725 c -0.203136,-0.107239 -0.369339,-0.220247 -0.369339,-0.251129 0,-0.04686 1.754859,-3.469339 1.828215,-3.565539 0.01321,-0.01732 0.194512,0.05593 0.402897,0.162773 0.737341,0.378061 1.117562,1.003572 1.117562,1.838529 0,0.829253 -0.380575,1.460615 -1.104093,1.831657 -0.492053,0.25234 -1.381022,0.244617 -1.875242,-0.01629 z m 5.29386,0.06702 C 41.36,61.231343 41.063219,60.991826 40.862998,60.77001 c -0.653396,-0.723863 -0.722235,-1.657437 -0.184712,-2.505024 0.369086,-0.581987 0.940696,-0.864153 1.750601,-0.864153 0.511866,0 0.666115,0.04609 1.071307,0.320094 0.673017,0.455117 0.954324,1.020049 0.906294,1.820047 -0.06768,1.127342 -0.901127,1.902065 -2.037679,1.894111 -0.302956,-0.0021 -0.683791,-0.06189 -0.8463,-0.132814 z m -2.511506,-5.624017 c 0,-0.827954 0.006,-0.848269 0.613741,-2.068299 0.337558,-0.677673 0.647802,-1.232132 0.689433,-1.232132 0.04163,0 0.07569,0.930734 0.07569,2.068298 v 2.068299 h -0.689433 -0.689433 z m 3.608419,0.697217 c -1.407433,-0.521423 -1.785994,-2.399079 -0.690749,-3.426104 1.179024,-1.105584 3.089972,-0.505068 3.430925,1.07817 l 0.06893,0.320094 h -0.500277 -0.500278 v 0.938096 c 0,0.931479 -0.0019,0.93886 -0.270849,1.046335 -0.438654,0.175296 -1.129103,0.194787 -1.537705,0.04341 z m 3.581381,-2.178739 c 0,-0.543435 0.601263,-1.340566 1.23113,-1.632185 1.200517,-0.555821 2.511996,0.141609 2.843677,1.512235 l 0.06554,0.270849 h -2.070175 c -1.793783,0 -2.070175,-0.02015 -2.070175,-0.150899 z m -4.629049,-3.494761 v -0.887928 l 0.591702,-1.180371 c 0.325436,-0.649203 0.61352,-1.18037 0.640187,-1.18037 0.02667,0 0.04849,0.930735 0.04849,2.068299 v 2.068298 h -0.640187 -0.640188 z m 2.407721,0.761913 c -0.0266,-0.06931 -0.03629,-0.988963 -0.02153,-2.043676 l 0.02683,-1.917661 0.66481,-0.02912 0.66481,-0.02912 v 2.072799 2.072798 h -0.643278 c -0.43167,0 -0.659186,-0.04145 -0.691636,-0.126015 z m 3.564467,-0.01825 c -1.403638,-0.500383 -1.785967,-2.393784 -0.690748,-3.420783 0.830789,-0.77904 2.026652,-0.753908 2.840252,0.05969 1.545198,1.545197 -0.08646,4.096545 -2.149504,3.36109 z M 45.287645,46.638269 C 44.796324,46.478728 44.322323,46.08794 44.084509,45.646347 l -0.192946,-0.358281 0.631198,-1.27444 c 0.667377,-1.347491 0.702975,-1.382449 1.410357,-1.385003 1.344938,-0.0049 2.355286,1.392884 1.928421,2.667822 -0.355174,1.06081 -1.538893,1.677907 -2.573894,1.341824 z m 3.67089,-1.942692 v -2.068299 h 0.689432 0.689433 v 2.068299 2.068298 h -0.689433 -0.689432 z"
     id="path11232"
     inkscape:connector-curvature="0" />
</svg>
