<?xml version="1.0" encoding="UTF-8" standalone="no"?>
<svg
   xmlns:dc="http://purl.org/dc/elements/1.1/"
   xmlns:cc="http://creativecommons.org/ns#"
   xmlns:rdf="http://www.w3.org/1999/02/22-rdf-syntax-ns#"
   xmlns:svg="http://www.w3.org/2000/svg"
   xmlns="http://www.w3.org/2000/svg"
   xmlns:sodipodi="http://sodipodi.sourceforge.net/DTD/sodipodi-0.dtd"
   xmlns:inkscape="http://www.inkscape.org/namespaces/inkscape"
   width="100"
   height="100"
   viewBox="0 0 100 100"
   version="1.1"
   id="svg9394"
   sodipodi:docname="img-empty-staking-off.svg"
   inkscape:version="0.92.3 (2405546, 2018-03-11)">
  <metadata
     id="metadata9398">
    <rdf:RDF>
      <cc:Work
         rdf:about="">
        <dc:format>image/svg+xml</dc:format>
        <dc:type
           rdf:resource="http://purl.org/dc/dcmitype/StillImage" />
        <dc:title></dc:title>
      </cc:Work>
    </rdf:RDF>
  </metadata>
  <sodipodi:namedview
     pagecolor="#ffffff"
     bordercolor="#666666"
     borderopacity="1"
     objecttolerance="10"
     gridtolerance="10"
     guidetolerance="10"
     inkscape:pageopacity="0"
     inkscape:pageshadow="2"
     inkscape:window-width="1251"
     inkscape:window-height="769"
     id="namedview9396"
     showgrid="false"
     inkscape:zoom="4.72"
     inkscape:cx="103.0748"
     inkscape:cy="51.853676"
     inkscape:window-x="29"
     inkscape:window-y="0"
     inkscape:window-maximized="1"
     inkscape:current-layer="svg9394" />
  <defs
     id="defs9376">
    <style
       type="text/css"
       id="style9374">
            .cls-1{fill:#d6d6d6}.cls-2{fill:#666}.cls-3{fill:none}
        </style>
  </defs>
  <g
     id="ic_staking_off"
     transform="translate(-150)">
    <g
       id="Group_9010"
       data-name="Group 9010">
      <g
         id="Group_9005"
         data-name="Group 9005">
        <circle
           id="Ellipse_612"
           cx="14"
           cy="14"
           r="14"
           class="cls-1"
           data-name="Ellipse 612"
           transform="translate(186 56)"
           style="fill:#7d744b;fill-opacity:1" />
        <path
           id="Rectangle_4658"
           d="M0 0h18v18H0z"
           class="cls-1"
           data-name="Rectangle 4658"
           transform="translate(191 28)"
           style="fill:#7d744b;fill-opacity:1" />
      </g>
      <g
         id="Group_9009"
         data-name="Group 9009">
        <g
           id="Group_9006"
           data-name="Group 9006">
          <path
             id="Rectangle_4659"
             d="M0 0h2v4H0z"
             class="cls-2"
             data-name="Rectangle 4659"
             transform="translate(231 58)"
             style="fill:#ceb347;fill-opacity:1" />
          <path
             id="Path_18967"
             d="M231 91h-62v-7h-2v9h66V66h-2z"
             class="cls-2"
             data-name="Path 18967"
             style="fill:#ceb347;fill-opacity:1" />
          <path
             id="Rectangle_4660"
             d="M0 0h2v4H0z"
             class="cls-2"
             data-name="Rectangle 4660"
             transform="translate(167 76)"
             style="fill:#ceb347;fill-opacity:1" />
          <path
             id="Path_18968"
             d="M230 27v2h7v16h-27V29h16v-2h-9.7A10.992 10.992 0 1 0 200 13.444 10.992 10.992 0 1 0 183.7 27H161v20h6v25h2V47h62v7h2v-7h6V27zM210 9a9 9 0 0 1 0 18h-9v-9a9.01 9.01 0 0 1 9-9zm-29 9a9 9 0 0 1 18 0v9h-9a9.01 9.01 0 0 1-9-9zm-14 27h-4V29h27v16zm25 0V29h16v16z"
             class="cls-2"
             data-name="Path 18968"
             style="fill:#ceb347;fill-opacity:1" />
        </g>
        <g
           id="Group_9008"
           data-name="Group 9008">
          <path
             id="Path_18969"
             d="M205 55.875V58a13 13 0 1 1-10 0v-2.125a15 15 0 1 0 10 0z"
             class="cls-2"
             data-name="Path 18969"
             style="fill:#ceb347;fill-opacity:1" />
          <g
             id="Group_9007"
             data-name="Group 9007">
            <path
               id="Rectangle_4661"
               d="M0 0h2v20H0z"
               class="cls-2"
               data-name="Rectangle 4661"
               transform="translate(199 52)"
               style="fill:#ceb347;fill-opacity:1" />
          </g>
        </g>
      </g>
    </g>
    <path
       id="Rectangle_4662"
       d="M0 0h100v100H0z"
       class="cls-3"
       data-name="Rectangle 4662"
       transform="translate(150)" />
  </g>
</svg>
