<?xml version="1.0" encoding="UTF-8" standalone="no"?>
<svg
   xmlns:dc="http://purl.org/dc/elements/1.1/"
   xmlns:cc="http://creativecommons.org/ns#"
   xmlns:rdf="http://www.w3.org/1999/02/22-rdf-syntax-ns#"
   xmlns:svg="http://www.w3.org/2000/svg"
   xmlns="http://www.w3.org/2000/svg"
   xmlns:sodipodi="http://sodipodi.sourceforge.net/DTD/sodipodi-0.dtd"
   xmlns:inkscape="http://www.inkscape.org/namespaces/inkscape"
   id="ic_empty_Dark_transactions"
   width="100"
   height="100"
   viewBox="0 0 100 100"
   version="1.1"
   sodipodi:docname="img-empty-transactions.svg"
   inkscape:version="0.92.3 (2405546, 2018-03-11)">
  <metadata
     id="metadata11593">
    <rdf:RDF>
      <cc:Work
         rdf:about="">
        <dc:format>image/svg+xml</dc:format>
        <dc:type
           rdf:resource="http://purl.org/dc/dcmitype/StillImage" />
        <dc:title></dc:title>
      </cc:Work>
    </rdf:RDF>
  </metadata>
  <sodipodi:namedview
     pagecolor="#ffffff"
     bordercolor="#666666"
     borderopacity="1"
     objecttolerance="10"
     gridtolerance="10"
     guidetolerance="10"
     inkscape:pageopacity="0"
     inkscape:pageshadow="2"
     inkscape:window-width="1251"
     inkscape:window-height="769"
     id="namedview11591"
     showgrid="false"
     inkscape:zoom="4.72"
     inkscape:cx="99.788136"
     inkscape:cy="52.296321"
     inkscape:window-x="29"
     inkscape:window-y="0"
     inkscape:window-maximized="1"
     inkscape:current-layer="ic_empty_Dark_transactions" />
  <defs
     id="defs11573">
    <style
       type="text/css"
       id="style11571">
            .cls-1{fill:#413d4a}.cls-2{fill:#a09ea5}.cls-3{fill:none}
        </style>
  </defs>
  <g
     id="Group_9036"
     data-name="Group 9036">
    <path
       id="Path_18988"
       d="M50 26a24 24 0 1 0 24 24 24 24 0 0 0-24-24zm0 42a18 18 0 1 1 18-18 18 18 0 0 1-18 18z"
       class="cls-1"
       data-name="Path 18988"
       style="fill:#7d744b;fill-opacity:1" />
    <g
       id="Group_9035"
       data-name="Group 9035">
      <g
         id="Group_9033"
         data-name="Group 9033">
        <g
           id="Group_9032"
           data-name="Group 9032" />
      </g>
      <g
         id="Group_9034"
         data-name="Group 9034">
        <path
           id="Path_18990"
           d="M50 31a19 19 0 1 0 19 19 19.021 19.021 0 0 0-19-19zm0 36a17 17 0 1 1 17-17 17.019 17.019 0 0 1-17 17z"
           class="cls-2"
           data-name="Path 18990"
           style="fill:#ceb347;fill-opacity:1" />
        <path
           id="Rectangle_4693"
           d="M0 0h2v4H0z"
           class="cls-2"
           data-name="Rectangle 4693"
           transform="translate(83 56)"
           style="fill:#ceb347;fill-opacity:1" />
        <path
           id="Rectangle_4694"
           d="M0 0h2v8H0z"
           class="cls-2"
           data-name="Rectangle 4694"
           transform="translate(83 44)"
           style="fill:#ceb347;fill-opacity:1" />
        <path
           id="Rectangle_4695"
           d="M0 0h2v8H0z"
           class="cls-2"
           data-name="Rectangle 4695"
           transform="translate(15 48)"
           style="fill:#ceb347;fill-opacity:1" />
        <path
           id="Rectangle_4696"
           d="M0 0h2v4H0z"
           class="cls-2"
           data-name="Rectangle 4696"
           transform="translate(15 40)"
           style="fill:#ceb347;fill-opacity:1" />
        <path
           id="Path_18991"
           d="M95.162 71H85v-7h-2v9h7.838L76 90.456 61.162 73H68v-2h-4.461a24.989 24.989 0 0 0-22.4-44.374L24 6.456 4.838 29H15v7h2v-9H9.162L24 9.544 38.838 27H32v2h4.461a24.989 24.989 0 0 0 22.4 44.374L76 93.544zM27 50a23 23 0 1 1 23 23 23.026 23.026 0 0 1-23-23z"
           class="cls-2"
           data-name="Path 18991"
           style="fill:#ceb347;fill-opacity:1" />
      </g>
    </g>
  </g>
  <path
     id="Rectangle_4697"
     d="M0 0h100v100H0z"
     class="cls-3"
     data-name="Rectangle 4697" />
  <path
     style="fill:#ceb347;fill-opacity:1;stroke-width:0.0811952"
     d="m 45.100557,61.495491 v -1.664502 h 0.527769 0.527769 v 1.664502 1.664502 h -0.527769 -0.527769 z m 2.975405,1.420093 c -0.287587,-0.182382 -0.435659,-0.352378 -0.58347,-0.66986 -0.337722,-0.725393 -0.207442,-1.424931 0.369985,-1.986634 0.348009,-0.338531 0.714032,-0.454608 1.299879,-0.412232 0.633186,0.0458 1.058296,0.339564 1.347861,0.931413 0.18278,0.373589 0.207805,0.507857 0.16748,0.898572 -0.09421,0.912768 -0.738263,1.47944 -1.684173,1.481814 -0.453524,0.0011 -0.589126,-0.03478 -0.917562,-0.243073 z m 4.156992,0.01017 c -0.412068,-0.261327 -0.799506,-0.913612 -0.798719,-1.344713 0.0012,-0.670429 0.387231,-1.288372 1.000109,-1.601039 0.483215,-0.246518 1.231753,-0.185002 1.690277,0.13891 0.478593,0.338089 0.678762,0.759943 0.678762,1.430479 0,0.471689 -0.03167,0.586133 -0.246962,0.892458 -0.357233,0.50828 -0.767632,0.715163 -1.421942,0.716806 -0.448438,0.0011 -0.590285,-0.03552 -0.901525,-0.232901 z m -6.56403,-3.948938 c 0,-0.190858 0.522124,-1.316753 0.891863,-1.923189 l 0.163067,-0.267459 3.25e-4,1.197629 3.24e-4,1.197629 h -0.527768 c -0.50994,0 -0.527769,-0.0069 -0.527769,-0.20461 z m 2.836176,-0.01868 c -1.052462,-0.533184 -1.268218,-1.836116 -0.441025,-2.66331 0.673926,-0.673925 1.663727,-0.696081 2.341905,-0.05242 1.129637,1.072141 0.361773,2.93571 -1.210805,2.938566 -0.137128,2.43e-4 -0.447662,-0.100026 -0.690075,-0.222834 z m 3.253463,-1.478102 V 55.77123 h 0.570014 0.570014 l -0.02195,1.6848 -0.02195,1.6848 -0.548067,0.02401 -0.548068,0.02401 z m 2.02988,-0.0037 V 55.77123 h 0.527769 0.527769 v 1.705099 1.705099 H 54.316212 53.788443 Z M 45.100557,53.592492 V 49.194419 H 42.664701 40.228845 V 44.363305 39.53219 h 7.18731 7.187309 l -0.76621,1.481813 c -0.421415,0.814997 -2.544518,4.952907 -4.718007,9.195356 -2.173488,4.242449 -3.966848,7.728767 -3.985244,7.747375 -0.01839,0.01861 -0.03345,-1.945302 -0.03345,-4.364242 z m 2.983924,1.280062 c -0.167465,-0.08841 -0.304482,-0.181571 -0.304482,-0.20703 0,-0.03863 1.4467,-2.860113 1.507174,-2.939419 0.01089,-0.01428 0.160356,0.04611 0.332148,0.134189 0.607861,0.311672 0.921314,0.827342 0.921314,1.515677 0,0.683635 -0.313744,1.204128 -0.910211,1.510013 -0.405647,0.208028 -1.13851,0.201662 -1.545943,-0.01343 z m 4.364241,0.05525 c -0.133972,-0.05847 -0.378636,-0.255929 -0.543698,-0.438794 -0.538658,-0.596751 -0.595409,-1.366386 -0.152276,-2.065134 0.304273,-0.479789 0.775507,-0.712405 1.44319,-0.712405 0.421981,0 0.549143,0.03799 0.883182,0.263884 0.554833,0.375198 0.786742,0.840925 0.747146,1.500441 -0.0558,0.929377 -0.742886,1.568057 -1.679856,1.5615 -0.249756,-0.0017 -0.563716,-0.05102 -0.697688,-0.109492 z m -2.070477,-4.636422 c 0,-0.682563 0.005,-0.69931 0.505966,-1.7051 0.278281,-0.558671 0.534046,-1.015766 0.568366,-1.015766 0.03432,0 0.0624,0.767294 0.0624,1.705099 v 1.705099 H 50.94661 50.378244 Z m 2.974769,0.574784 c -1.160283,-0.42986 -1.472367,-1.977794 -0.569451,-2.82447 0.971984,-0.911441 2.547364,-0.416377 2.828445,0.888839 l 0.05683,0.263885 h -0.412427 -0.412427 v 0.773364 c 0,0.767908 -0.0016,0.773993 -0.223287,0.862595 -0.361626,0.144513 -0.930829,0.160582 -1.26768,0.03579 z m 2.95248,-1.796147 c 0,-0.448006 0.49568,-1.105158 1.01494,-1.345568 0.989702,-0.458217 2.070882,0.116742 2.344319,1.246682 l 0.05403,0.223287 H 58.01214 c -1.478789,0 -1.706646,-0.01661 -1.706646,-0.124401 z m -3.816174,-2.88107 v -0.732005 l 0.487797,-0.973094 c 0.268289,-0.535202 0.505785,-0.973094 0.527769,-0.973094 0.02198,0 0.03997,0.767295 0.03997,1.705099 v 1.705099 H 53.017089 52.48932 Z m 1.984918,0.628119 c -0.02193,-0.05714 -0.02991,-0.815299 -0.01775,-1.684801 l 0.02211,-1.580913 0.548068,-0.02401 0.548067,-0.02401 v 1.708809 1.708809 h -0.530316 c -0.355867,0 -0.543432,-0.03417 -0.570183,-0.103886 z m 2.938536,-0.01505 c -1.157155,-0.412514 -1.472346,-1.973428 -0.569451,-2.820083 0.6849,-0.642239 1.670766,-0.621519 2.341496,0.04921 1.273856,1.273856 -0.07127,3.377179 -1.772045,2.770873 z M 55.55269,42.83884 c -0.405044,-0.131526 -0.795809,-0.453691 -0.991862,-0.817738 l -0.159065,-0.295366 0.520358,-1.050645 c 0.550184,-1.110867 0.579531,-1.139686 1.162694,-1.141792 1.108763,-0.004 1.941691,1.148289 1.589784,2.199345 -0.292803,0.874528 -1.268658,1.383261 -2.121909,1.106196 z m 3.02627,-1.60155 v -1.7051 h 0.568366 0.568366 v 1.7051 1.705099 H 59.147326 58.57896 Z"
     id="path12153"
     inkscape:connector-curvature="0" />
</svg>
