<?xml version="1.0" encoding="UTF-8" standalone="no"?>
<svg
   xmlns:dc="http://purl.org/dc/elements/1.1/"
   xmlns:cc="http://creativecommons.org/ns#"
   xmlns:rdf="http://www.w3.org/1999/02/22-rdf-syntax-ns#"
   xmlns:svg="http://www.w3.org/2000/svg"
   xmlns="http://www.w3.org/2000/svg"
   xmlns:sodipodi="http://sodipodi.sourceforge.net/DTD/sodipodi-0.dtd"
   xmlns:inkscape="http://www.inkscape.org/namespaces/inkscape"
   id="ic_empty_Dark_ztelos"
   width="100"
   height="100"
   viewBox="0 0 100 100"
   version="1.1"
   sodipodi:docname="img-empty-privacy-dark.svg"
   inkscape:version="0.92.3 (2405546, 2018-03-11)">
  <metadata
     id="metadata12427">
    <rdf:RDF>
      <cc:Work
         rdf:about="">
        <dc:format>image/svg+xml</dc:format>
        <dc:type
           rdf:resource="http://purl.org/dc/dcmitype/StillImage" />
        <dc:title></dc:title>
      </cc:Work>
    </rdf:RDF>
  </metadata>
  <sodipodi:namedview
     pagecolor="#ffffff"
     bordercolor="#666666"
     borderopacity="1"
     objecttolerance="10"
     gridtolerance="10"
     guidetolerance="10"
     inkscape:pageopacity="0"
     inkscape:pageshadow="2"
     inkscape:window-width="1251"
     inkscape:window-height="769"
     id="namedview12425"
     showgrid="false"
     inkscape:zoom="4.72"
     inkscape:cx="97.910493"
     inkscape:cy="52.097924"
     inkscape:window-x="29"
     inkscape:window-y="0"
     inkscape:window-maximized="1"
     inkscape:current-layer="ic_empty_Dark_ztelos" />
  <defs
     id="defs12408">
    <style
       type="text/css"
       id="style12406">
            .cls-1{fill:#413d4a}.cls-2{fill:#a09ea5}.cls-3{fill:none}
        </style>
  </defs>
  <g
     id="Group_9081"
     data-name="Group 9081">
    <path
       id="Path_19026"
       d="M50 26a24 24 0 1 0 24 24 24 24 0 0 0-24-24zm0 42a18 18 0 1 1 18-18 18 18 0 0 1-18 18z"
       class="cls-1"
       data-name="Path 19026"
       style="fill:#ceb347;fill-opacity:1" />
    <g
       id="Group_9080"
       data-name="Group 9080">
      <g
         id="Group_9078"
         data-name="Group 9078">
        <path
           id="Path_19027"
           d="M50 31a19 19 0 1 0 19 19 19.021 19.021 0 0 0-19-19zm0 36a17 17 0 1 1 17-17 17.019 17.019 0 0 1-17 17z"
           class="cls-2"
           data-name="Path 19027"
           style="fill:#7d744b;fill-opacity:1" />
        <path
           id="Rectangle_4744"
           d="M0 0h2v4H0z"
           class="cls-2"
           data-name="Rectangle 4744"
           transform="translate(83 56)"
           style="fill:#7d744b;fill-opacity:1" />
        <path
           id="Rectangle_4745"
           d="M0 0h2v8H0z"
           class="cls-2"
           data-name="Rectangle 4745"
           transform="translate(83 44)"
           style="fill:#7d744b;fill-opacity:1" />
        <path
           id="Rectangle_4746"
           d="M0 0h2v8H0z"
           class="cls-2"
           data-name="Rectangle 4746"
           transform="translate(15 48)"
           style="fill:#7d744b;fill-opacity:1" />
        <path
           id="Rectangle_4747"
           d="M0 0h2v4H0z"
           class="cls-2"
           data-name="Rectangle 4747"
           transform="translate(15 40)"
           style="fill:#7d744b;fill-opacity:1" />
        <path
           id="Path_19028"
           d="M95.162 71H85v-7h-2v9h7.838L76 90.456 61.162 73H68v-2h-4.461a24.989 24.989 0 0 0-22.4-44.374L24 6.456 4.838 29H15v7h2v-9H9.162L24 9.544 38.838 27H32v2h4.461a24.989 24.989 0 0 0 22.4 44.374L76 93.544zM27 50a23 23 0 1 1 23 23 23.026 23.026 0 0 1-23-23z"
           class="cls-2"
           data-name="Path 19028"
           style="fill:#7d744b;fill-opacity:1" />
      </g>
      <g
         id="Group_9079"
         data-name="Group 9079" />
    </g>
  </g>
  <path
     id="Rectangle_4748"
     d="M0 0h100v100H0z"
     class="cls-3"
     data-name="Rectangle 4748" />
  <path
     style="fill:#7d744b;fill-opacity:1;stroke-width:0.0485379"
     d="m 53.124933,61.498133 v -0.995028 h 0.315497 0.315491 v 0.995028 0.995027 H 53.44043 53.124933 Z m 1.778673,0.84892 c -0.17192,-0.109026 -0.260435,-0.210648 -0.348794,-0.400436 -0.201887,-0.433636 -0.124006,-0.851814 0.221177,-1.187596 0.208038,-0.202371 0.426842,-0.271761 0.777059,-0.246429 0.37851,0.02738 0.632638,0.202988 0.80574,0.556791 0.109265,0.223329 0.124222,0.303594 0.100119,0.537161 -0.05631,0.545646 -0.441332,0.884398 -1.006791,0.885817 -0.271111,6.58e-4 -0.352172,-0.02079 -0.54851,-0.145308 z m 2.485018,0.006 c -0.246327,-0.156219 -0.477935,-0.546151 -0.477469,-0.80386 5.98e-4,-0.400777 0.23149,-0.770179 0.597859,-0.957089 0.288865,-0.147367 0.736337,-0.110593 1.010437,0.08304 0.286098,0.202107 0.405758,0.454288 0.405758,0.855129 0,0.281972 -0.01895,0.350386 -0.147631,0.533505 -0.21355,0.303846 -0.458884,0.42752 -0.850025,0.428502 -0.268075,6.57e-4 -0.352872,-0.02123 -0.538929,-0.139227 z m -3.92393,-2.360647 c 0,-0.114093 0.312126,-0.787145 0.533154,-1.149668 l 0.09748,-0.159885 1.97e-4,0.715934 1.92e-4,0.715934 h -0.315498 c -0.304838,0 -0.315491,-0.0041 -0.315491,-0.122315 z m 1.695448,-0.01116 c -0.629152,-0.318705 -0.758132,-1.097588 -0.263644,-1.592078 0.40287,-0.402868 0.994566,-0.416113 1.399977,-0.03134 0.67529,0.640919 0.216263,1.754947 -0.723814,1.756654 -0.08197,1.45e-4 -0.267607,-0.05979 -0.412519,-0.133209 z m 1.944895,-0.883598 v -1.021511 h 0.340754 0.340748 l -0.01315,1.007161 -0.01315,1.007161 -0.327632,0.01435 -0.327627,0.01436 z m 1.213447,-0.0022 v -1.019299 h 0.315498 0.315497 v 1.019296 1.019296 H 58.633982 58.318484 Z M 53.124933,56.77376 v -2.629136 h -1.45614 -1.456139 v -2.888005 -2.888006 h 4.296522 4.296522 l -0.458035,0.885817 c -0.251916,0.487199 -1.52109,2.960812 -2.820386,5.496917 -1.299297,2.536106 -2.371355,4.620202 -2.382354,4.631326 -0.011,0.01113 -0.01996,-1.162888 -0.01996,-2.608913 z m 1.783766,0.765212 c -0.100106,-0.05285 -0.182016,-0.108542 -0.182016,-0.123761 0,-0.02309 0.864827,-1.709755 0.900975,-1.757163 0.0065,-0.0085 0.09586,0.02756 0.198557,0.08022 0.363374,0.186316 0.550752,0.494579 0.550752,0.906062 0,0.408672 -0.187551,0.719819 -0.544117,0.902674 -0.242488,0.124358 -0.680593,0.120552 -0.924151,-0.0081 z m 2.608911,0.03303 c -0.08009,-0.03495 -0.226342,-0.152993 -0.32502,-0.262307 -0.322001,-0.356735 -0.355931,-0.816816 -0.09102,-1.234523 0.18189,-0.286814 0.463588,-0.425871 0.862729,-0.425871 0.252256,0 0.328271,0.02271 0.527958,0.157749 0.331674,0.22429 0.470308,0.502698 0.446641,0.896952 -0.03336,0.555575 -0.444094,0.937374 -1.004208,0.933454 -0.149305,-10e-4 -0.336987,-0.0305 -0.417074,-0.06546 z m -1.237718,-2.77162 c 0,-0.408031 0.003,-0.418042 0.302465,-1.019296 0.166354,-0.333969 0.319251,-0.607217 0.339768,-0.607217 0.0205,0 0.0373,0.458683 0.0373,1.019296 v 1.019296 h -0.339768 -0.339768 z m 1.778296,0.343603 c -0.693607,-0.256968 -0.880166,-1.182312 -0.340413,-1.688449 0.581048,-0.544852 1.522799,-0.248907 1.690827,0.531342 l 0.03395,0.157749 h -0.246547 -0.246547 v 0.462328 c 0,0.459051 -0.0012,0.462688 -0.133475,0.515653 -0.21618,0.08639 -0.556443,0.096 -0.75781,0.02139 z m 1.764971,-1.073725 c 0,-0.267815 0.296315,-0.660655 0.606724,-0.80437 0.591642,-0.273919 1.237963,0.06979 1.401417,0.745257 l 0.03229,0.13348 h -1.020217 c -0.88401,0 -1.020223,-0.0099 -1.020223,-0.07437 z M 57.541881,52.347978 V 51.91039 l 0.291603,-0.581708 c 0.160381,-0.31994 0.302351,-0.581709 0.315497,-0.581709 0.01315,0 0.02392,0.458684 0.02392,1.019296 v 1.019296 h -0.315502 -0.315497 z m 1.186571,0.375484 c -0.01309,-0.03415 -0.01788,-0.487379 -0.01064,-1.007161 l 0.01321,-0.945058 0.327632,-0.01436 0.327627,-0.01435 v 1.021513 1.021514 h -0.317015 c -0.212737,0 -0.324865,-0.02042 -0.340856,-0.0621 z m 1.756631,-0.009 c -0.691736,-0.246584 -0.880154,-1.179687 -0.340413,-1.685812 0.409429,-0.383926 0.998774,-0.371539 1.399732,0.02942 0.761498,0.761502 -0.04262,2.018853 -1.059319,1.656408 z M 59.37314,50.345322 C 59.131011,50.2667 58.897411,50.074108 58.780214,49.856484 l -0.09509,-0.176568 0.311067,-0.628068 c 0.328894,-0.664068 0.346439,-0.681296 0.695048,-0.682555 0.662815,-0.0024 1.160734,0.686438 0.950366,1.314752 -0.175034,0.522786 -0.758397,0.826904 -1.268465,0.661277 z m 1.809084,-0.957395 V 48.36863 h 0.339766 0.339762 v 1.019297 1.019296 H 61.52199 61.182224 Z"
     id="path12153"
     inkscape:connector-curvature="0" />
  <text
     xml:space="preserve"
     style="font-style:normal;font-weight:normal;font-size:51.33424759px;line-height:1.25;font-family:sans-serif;letter-spacing:0px;word-spacing:0px;fill:#7d744b;fill-opacity:1;stroke:none;stroke-width:1.28335619;"
     x="37.048885"
     y="51.90678"
     id="text13042"><tspan
       sodipodi:role="line"
       id="tspan13040"
       x="37.048885"
       y="51.90678"
       style="font-style:normal;font-variant:normal;font-weight:bold;font-stretch:normal;font-size:17.11141586px;font-family:sans-serif;-inkscape-font-specification:'sans-serif Bold';stroke-width:1.28335619;fill:#7d744b;fill-opacity:1;">Z</tspan></text>
</svg>
