<?xml version="1.0" encoding="UTF-8" standalone="no"?>
<svg
   xmlns:dc="http://purl.org/dc/elements/1.1/"
   xmlns:cc="http://creativecommons.org/ns#"
   xmlns:rdf="http://www.w3.org/1999/02/22-rdf-syntax-ns#"
   xmlns:svg="http://www.w3.org/2000/svg"
   xmlns="http://www.w3.org/2000/svg"
   xmlns:sodipodi="http://sodipodi.sourceforge.net/DTD/sodipodi-0.dtd"
   xmlns:inkscape="http://www.inkscape.org/namespaces/inkscape"
   id="ic_empty_dark_multisend"
   width="100"
   height="100"
   viewBox="0 0 100 100"
   version="1.1"
   sodipodi:docname="img-empty-dark-multisend.svg"
   inkscape:version="0.92.3 (2405546, 2018-03-11)">
  <metadata
     id="metadata6618">
    <rdf:RDF>
      <cc:Work
         rdf:about="">
        <dc:format>image/svg+xml</dc:format>
        <dc:type
           rdf:resource="http://purl.org/dc/dcmitype/StillImage" />
        <dc:title></dc:title>
      </cc:Work>
    </rdf:RDF>
  </metadata>
  <sodipodi:namedview
     pagecolor="#ffffff"
     bordercolor="#666666"
     borderopacity="1"
     objecttolerance="10"
     gridtolerance="10"
     guidetolerance="10"
     inkscape:pageopacity="0"
     inkscape:pageshadow="2"
     inkscape:window-width="1251"
     inkscape:window-height="769"
     id="namedview6616"
     showgrid="false"
     inkscape:zoom="4.72"
     inkscape:cx="107.40353"
     inkscape:cy="47.734334"
     inkscape:window-x="29"
     inkscape:window-y="0"
     inkscape:window-maximized="1"
     inkscape:current-layer="ic_empty_dark_multisend" />
  <defs
     id="defs6595">
    <style
       type="text/css"
       id="style6593">
            .cls-1{fill:#413d4a}.cls-2{fill:#a09ea5}.cls-3{fill:none}
        </style>
  </defs>
  <g
     id="Group_9062"
     data-name="Group 9062">
    <g
       id="Group_9060"
       data-name="Group 9060">
      <path
         id="Rectangle_4717"
         d="M0 0h10v9H0z"
         class="cls-1"
         data-name="Rectangle 4717"
         transform="translate(45 18)"
         style="fill:#ceb347;fill-opacity:1" />
      <g
         id="Group_9059"
         data-name="Group 9059">
        <path
           id="Rectangle_4718"
           d="M0 0h6v10H0z"
           class="cls-1"
           data-name="Rectangle 4718"
           transform="translate(14 66)"
           style="fill:#ceb347;fill-opacity:1" />
        <path
           id="Rectangle_4719"
           d="M0 0h6v10H0z"
           class="cls-1"
           data-name="Rectangle 4719"
           transform="translate(80 66)"
           style="fill:#ceb347;fill-opacity:1" />
        <path
           id="Rectangle_4720"
           d="M0 0h6v10H0z"
           class="cls-1"
           data-name="Rectangle 4720"
           transform="translate(47 66)"
           style="fill:#ceb347;fill-opacity:1" />
      </g>
    </g>
    <g
       id="Group_9061"
       data-name="Group 9061">
      <path
         id="Rectangle_4722"
         d="M0 0h2v4H0z"
         class="cls-2"
         data-name="Rectangle 4722"
         transform="translate(67 40)"
         style="fill:#7d744b;fill-opacity:1" />
      <circle
         id="Ellipse_643"
         cx="1"
         cy="1"
         r="1"
         class="cls-2"
         data-name="Ellipse 643"
         transform="translate(49 72)"
         style="fill:#7d744b;fill-opacity:1" />
      <circle
         id="Ellipse_644"
         cx="1"
         cy="1"
         r="1"
         class="cls-2"
         data-name="Ellipse 644"
         transform="translate(82 72)"
         style="fill:#7d744b;fill-opacity:1" />
      <path
         id="Rectangle_4723"
         d="M0 0h4v2H0z"
         class="cls-2"
         data-name="Rectangle 4723"
         transform="translate(32 58)"
         style="fill:#7d744b;fill-opacity:1" />
      <path
         id="Path_19007"
         d="M16 65h-3v3H7v4h2v-2h4v7h8v-7h4v21H9V76H7v17h20V68h-6v-3h-3v-5h10v-2H16zm3 2v8h-4v-8z"
         class="cls-2"
         data-name="Path 19007"
         style="fill:#7d744b;fill-opacity:1" />
      <circle
         id="Ellipse_645"
         cx="1"
         cy="1"
         r="1"
         class="cls-2"
         data-name="Ellipse 645"
         transform="translate(16 72)"
         style="fill:#7d744b;fill-opacity:1" />
      <path
         id="Path_19008"
         d="M87 68v-3h-3v-7H51v-5h18v-5h-2v3H33V28h34v8h2v-8h4V17H59.46A5.994 5.994 0 1 0 50 9.69 5.995 5.995 0 1 0 40.54 17H27v11h4v25h18v5h-9v2h9v5h-3v3h-6v16h2V70h4v7h8v-7h4v21H42v-3h-2v5h20V68h-6v-3h-3v-5h31v5h-3v3h-6v12h2V70h4v7h8v-7h4v21H75v-7h-2v9h20V68zM71 19v7H56v-7zm-20-6a4 4 0 1 1 4 4h-4zm0 6h3v7h-8v-7h5zM45 9a4 4 0 0 1 4 4v4h-4a4 4 0 0 1 0-8zM29 26v-7h15v7H29zm23 41v8h-4v-8zm33 8h-4v-8h4z"
         class="cls-2"
         data-name="Path 19008"
         style="fill:#7d744b;fill-opacity:1" />
    </g>
  </g>
  <path
     id="Rectangle_4724"
     d="M0 0h100v100H0z"
     class="cls-3"
     data-name="Rectangle 4724" />
  <path
     style="fill:#7d744b;fill-opacity:1;stroke-width:0.05677235"
     d="M 46.559026,46.673663 V 45.50983 h 0.369021 0.36902 v 1.163833 1.163833 h -0.36902 -0.369021 z m 2.080428,0.992941 c -0.201083,-0.127523 -0.304616,-0.246386 -0.407967,-0.468372 -0.236138,-0.507201 -0.145045,-0.996323 0.258696,-1.38907 0.243331,-0.236704 0.499257,-0.317867 0.908886,-0.288236 0.442729,0.03202 0.73997,0.237425 0.942436,0.651251 0.127802,0.261216 0.145299,0.355097 0.117103,0.628289 -0.06587,0.638215 -0.516199,1.034436 -1.177587,1.036096 -0.317108,7.95e-4 -0.411922,-0.02432 -0.641567,-0.169958 z m 2.906603,0.0071 c -0.288121,-0.182722 -0.559021,-0.638805 -0.558471,-0.940234 8.58e-4,-0.468769 0.270755,-0.900841 0.699284,-1.11946 0.337868,-0.172367 0.861252,-0.129355 1.181856,0.09713 0.334636,0.236395 0.474596,0.531358 0.474596,1.000203 0,0.329809 -0.02214,0.409829 -0.172678,0.624014 -0.24978,0.355393 -0.536734,0.500048 -0.994233,0.501196 -0.313552,7.89e-4 -0.412732,-0.02484 -0.630354,-0.162846 z m -4.589624,-2.76113 c 0,-0.133449 0.365074,-0.920685 0.623598,-1.344709 l 0.114018,-0.18701 2.27e-4,0.837392 2.27e-4,0.837392 h -0.36902 c -0.356554,0 -0.369021,-0.0048 -0.369021,-0.143065 z m 1.983078,-0.01306 c -0.73589,-0.372807 -0.886748,-1.283828 -0.308368,-1.862208 0.471214,-0.471214 1.163291,-0.486706 1.637478,-0.03665 0.789852,0.74965 0.252955,2.052673 -0.846604,2.054669 -0.09588,1.71e-4 -0.313009,-0.06994 -0.482506,-0.155807 z m 2.274848,-1.033501 v -1.194814 h 0.398558 0.398559 l -0.01535,1.178027 -0.01534,1.178026 -0.383214,0.01679 -0.383213,0.01679 z m 1.419309,-0.0026 v -1.19222 h 0.36902 0.36902 v 1.19222 1.192219 h -0.36902 -0.36902 z m -6.074642,-2.715611 v -3.075169 h -1.70317 -1.70317 v -3.377954 -3.377955 h 5.025425 5.025426 l -0.53574,1.036095 c -0.294657,0.569853 -1.779148,3.463113 -3.29887,6.429469 -1.519721,2.966355 -2.773653,5.404018 -2.786515,5.417028 -0.01286,0.01301 -0.02339,-1.360171 -0.02339,-3.051514 z m 2.086384,0.89503 c -0.117093,-0.06181 -0.212896,-0.126956 -0.212896,-0.144757 0,-0.02701 1.011545,-1.999814 1.053829,-2.055266 0.0076,-0.01 0.112122,0.03224 0.23224,0.09383 0.425022,0.217924 0.644191,0.578484 0.644191,1.059774 0,0.478003 -0.219373,0.841936 -0.636427,1.055814 -0.283632,0.145454 -0.796056,0.141003 -1.080937,-0.0094 z m 3.051514,0.03863 c -0.09367,-0.04089 -0.264746,-0.178948 -0.380158,-0.306809 -0.376634,-0.417253 -0.416315,-0.955388 -0.106473,-1.443958 0.21275,-0.335473 0.542241,-0.49812 1.00909,-0.49812 0.295053,0 0.383965,0.02657 0.617529,0.18451 0.387943,0.262341 0.550096,0.587982 0.52241,1.049121 -0.03901,0.649828 -0.519432,1.096398 -1.174569,1.091813 -0.174632,-0.0012 -0.394155,-0.03567 -0.487829,-0.07656 z m -1.447695,-3.241825 c 0,-0.477253 0.0035,-0.488963 0.353776,-1.192219 0.194576,-0.390628 0.373409,-0.710233 0.397406,-0.710233 0.024,0 0.04363,0.536499 0.04363,1.19222 v 1.192219 h -0.397406 -0.397407 z m 2.079983,0.401894 c -0.811279,-0.300562 -1.029491,-1.38289 -0.398165,-1.974893 0.679619,-0.637287 1.781138,-0.291134 1.977672,0.621484 l 0.03973,0.18451 h -0.288372 -0.288373 v 0.540743 c 0,0.536928 -0.0011,0.541182 -0.156124,0.603133 -0.252851,0.101045 -0.650843,0.112281 -0.886372,0.02502 z m 2.064399,-1.255881 c 0,-0.313249 0.346583,-0.772736 0.709654,-0.940832 0.692008,-0.320389 1.447977,0.08163 1.639167,0.87169 l 0.03778,0.156124 h -1.193301 c -1.033981,0 -1.1933,-0.01161 -1.1933,-0.08698 z M 51.72531,35.971202 v -0.511824 l 0.341072,-0.680395 c 0.187589,-0.374217 0.353649,-0.680395 0.36902,-0.680395 0.01537,0 0.02795,0.536499 0.02795,1.192219 v 1.19222 H 52.09433 51.72531 Z m 1.387871,0.439186 c -0.01533,-0.03995 -0.02092,-0.570063 -0.01241,-1.178026 l 0.01546,-1.105388 0.383213,-0.01679 0.383213,-0.01679 v 1.194813 1.194814 h -0.370801 c -0.248826,0 -0.379972,-0.0239 -0.398677,-0.07264 z m 2.054649,-0.01052 c -0.809092,-0.288433 -1.029476,-1.379837 -0.398165,-1.971825 0.478888,-0.449059 1.168213,-0.434572 1.637193,0.03441 0.89069,0.890691 -0.04984,2.361352 -1.239028,1.937417 z m -1.300587,-2.771087 c -0.28321,-0.09196 -0.556436,-0.317224 -0.693518,-0.571769 l -0.111219,-0.206522 0.363839,-0.73462 c 0.384693,-0.776727 0.405212,-0.796878 0.812965,-0.79835 0.775256,-0.0028 1.357646,0.802893 1.11159,1.5378 -0.204731,0.611477 -0.887056,0.967188 -1.483657,0.773461 z m 2.115993,-1.119817 v -1.192219 h 0.397407 0.397406 v 1.192219 1.192219 h -0.397406 -0.397407 z"
     id="path7331"
     inkscape:connector-curvature="0" />
</svg>
