<?xml version="1.0" encoding="UTF-8" standalone="no"?>
<svg
   xmlns:dc="http://purl.org/dc/elements/1.1/"
   xmlns:cc="http://creativecommons.org/ns#"
   xmlns:rdf="http://www.w3.org/1999/02/22-rdf-syntax-ns#"
   xmlns:svg="http://www.w3.org/2000/svg"
   xmlns="http://www.w3.org/2000/svg"
   xmlns:sodipodi="http://sodipodi.sourceforge.net/DTD/sodipodi-0.dtd"
   xmlns:inkscape="http://www.inkscape.org/namespaces/inkscape"
   id="Group_9058"
   width="100"
   height="100"
   data-name="Group 9058"
   viewBox="0 0 100 100"
   version="1.1"
   sodipodi:docname="img-empty-dark-contacts.svg"
   inkscape:version="0.92.3 (2405546, 2018-03-11)">
  <metadata
     id="metadata3372">
    <rdf:RDF>
      <cc:Work
         rdf:about="">
        <dc:format>image/svg+xml</dc:format>
        <dc:type
           rdf:resource="http://purl.org/dc/dcmitype/StillImage" />
        <dc:title></dc:title>
      </cc:Work>
    </rdf:RDF>
  </metadata>
  <sodipodi:namedview
     pagecolor="#ffffff"
     bordercolor="#666666"
     borderopacity="1"
     objecttolerance="10"
     gridtolerance="10"
     guidetolerance="10"
     inkscape:pageopacity="0"
     inkscape:pageshadow="2"
     inkscape:window-width="1251"
     inkscape:window-height="769"
     id="namedview3370"
     showgrid="false"
     inkscape:zoom="4.72"
     inkscape:cx="92.372881"
     inkscape:cy="46.324978"
     inkscape:window-x="29"
     inkscape:window-y="0"
     inkscape:window-maximized="1"
     inkscape:current-layer="Group_9058" />
  <defs
     id="defs3352">
    <style
       type="text/css"
       id="style3350">
            .cls-1{fill:#413d4a}.cls-2{fill:#a09ea5}.cls-3{fill:none}
        </style>
  </defs>
  <g
     id="Group_9057"
     data-name="Group 9057">
    <g
       id="Group_9055"
       data-name="Group 9055">
      <path
         id="Rectangle_4710"
         d="M0 0h11v84H0z"
         class="cls-1"
         data-name="Rectangle 4710"
         transform="translate(18 8)"
         style="fill:#ceb347;fill-opacity:1" />
      <path
         id="Rectangle_4711"
         d="M0 0h5v12H0z"
         class="cls-1"
         data-name="Rectangle 4711"
         transform="translate(81 17)"
         style="fill:#ceb347;fill-opacity:1" />
      <path
         id="Rectangle_4712"
         d="M0 0h5v12H0z"
         class="cls-1"
         data-name="Rectangle 4712"
         transform="translate(81 38)"
         style="fill:#ceb347;fill-opacity:1" />
      <path
         id="Rectangle_4713"
         d="M0 0h5v12H0z"
         class="cls-1"
         data-name="Rectangle 4713"
         transform="translate(81 59)"
         style="fill:#ceb347;fill-opacity:1" />
      <circle
         id="Ellipse_642"
         cx="9"
         cy="9"
         r="9"
         class="cls-1"
         data-name="Ellipse 642"
         transform="translate(46 27)"
         style="fill:#ceb347;fill-opacity:1" />
      <path
         id="Path_19002"
         d="M70.581 64c-3.087-8.828-7.13-15-15.331-15S42.73 55.172 39.5 64z"
         class="cls-1"
         data-name="Path 19002"
         style="fill:#ceb347;fill-opacity:1" />
    </g>
    <g
       id="Group_9056"
       data-name="Group 9056">
      <path
         id="Rectangle_4714"
         d="M0 0h4.001v2H0z"
         class="cls-2"
         data-name="Rectangle 4714"
         transform="translate(64 7)"
         style="fill:#7d744b;fill-opacity:1" />
      <path
         id="Rectangle_4715"
         d="M0 0h2v4H0z"
         class="cls-2"
         data-name="Rectangle 4715"
         transform="translate(28 76)"
         style="fill:#7d744b;fill-opacity:1" />
      <path
         id="Path_19003"
         d="M87 30V16h-5V7H72v2h8v82H30v-7h-2v7h-9V9h9v63h2V9h30V7H17v86h65V72h5V58h-5v-7h5V37h-5v-7zm-5-12h3v10h-3zm3 42v10h-3V60zm0-21v10h-3V39z"
         class="cls-2"
         data-name="Path 19003"
         style="fill:#7d744b;fill-opacity:1" />
      <path
         id="Path_19004"
         d="M45 36a10 10 0 1 0 10-10 10.011 10.011 0 0 0-10 10zm18 0a8 8 0 1 1-8-8 8.009 8.009 0 0 1 8 8z"
         class="cls-2"
         data-name="Path 19004"
         style="fill:#7d744b;fill-opacity:1" />
      <path
         id="Path_19005"
         d="M55.25 48c-9.716 0-14.022 8.367-16.687 15.656L38.071 65H71.99l-.465-1.33C68.815 55.921 64.763 48 55.25 48zm-14.3 15c3.577-9.094 7.9-13 14.3-13 6.362 0 10.45 3.788 13.906 13z"
         class="cls-2"
         data-name="Path 19005"
         style="fill:#7d744b;fill-opacity:1" />
    </g>
  </g>
  <path
     id="Rectangle_4716"
     d="M0 0h100v100H0z"
     class="cls-3"
     data-name="Rectangle 4716" />
</svg>
