<?xml version="1.0" encoding="UTF-8" standalone="no"?>
<svg
   xmlns:dc="http://purl.org/dc/elements/1.1/"
   xmlns:cc="http://creativecommons.org/ns#"
   xmlns:rdf="http://www.w3.org/1999/02/22-rdf-syntax-ns#"
   xmlns:svg="http://www.w3.org/2000/svg"
   xmlns="http://www.w3.org/2000/svg"
   xmlns:sodipodi="http://sodipodi.sourceforge.net/DTD/sodipodi-0.dtd"
   xmlns:inkscape="http://www.inkscape.org/namespaces/inkscape"
   id="ic_empty_contacts"
   width="100"
   height="100"
   viewBox="0 0 100 100"
   version="1.1"
   sodipodi:docname="img-empty-contacts.svg"
   inkscape:version="0.92.3 (2405546, 2018-03-11)">
  <metadata
     id="metadata2549">
    <rdf:RDF>
      <cc:Work
         rdf:about="">
        <dc:format>image/svg+xml</dc:format>
        <dc:type
           rdf:resource="http://purl.org/dc/dcmitype/StillImage" />
        <dc:title></dc:title>
      </cc:Work>
    </rdf:RDF>
  </metadata>
  <sodipodi:namedview
     pagecolor="#ffffff"
     bordercolor="#666666"
     borderopacity="1"
     objecttolerance="10"
     gridtolerance="10"
     guidetolerance="10"
     inkscape:pageopacity="0"
     inkscape:pageshadow="2"
     inkscape:window-width="1251"
     inkscape:window-height="769"
     id="namedview2547"
     showgrid="false"
     inkscape:zoom="4.72"
     inkscape:cx="87.072887"
     inkscape:cy="49.30872"
     inkscape:window-x="29"
     inkscape:window-y="0"
     inkscape:window-maximized="1"
     inkscape:current-layer="ic_empty_contacts" />
  <defs
     id="defs2529">
    <style
       type="text/css"
       id="style2527">
            .cls-1{fill:#d6d6d6}.cls-2{fill:#666}.cls-3{fill:none}
        </style>
  </defs>
  <g
     id="Group_9027"
     data-name="Group 9027">
    <g
       id="Group_9025"
       data-name="Group 9025">
      <path
         id="Rectangle_4676"
         d="M0 0h11v84H0z"
         class="cls-1"
         data-name="Rectangle 4676"
         transform="translate(18 8)"
         style="fill:#7d744b;fill-opacity:1" />
      <path
         id="Rectangle_4677"
         d="M0 0h5v12H0z"
         class="cls-1"
         data-name="Rectangle 4677"
         transform="translate(81 17)"
         style="fill:#7d744b;fill-opacity:1" />
      <path
         id="Rectangle_4678"
         d="M0 0h5v12H0z"
         class="cls-1"
         data-name="Rectangle 4678"
         transform="translate(81 38)"
         style="fill:#7d744b;fill-opacity:1" />
      <path
         id="Rectangle_4679"
         d="M0 0h5v12H0z"
         class="cls-1"
         data-name="Rectangle 4679"
         transform="translate(81 59)"
         style="fill:#7d744b;fill-opacity:1" />
      <circle
         id="Ellipse_625"
         cx="9"
         cy="9"
         r="9"
         class="cls-1"
         data-name="Ellipse 625"
         transform="translate(46 27)"
         style="fill:#7d744b;fill-opacity:1" />
      <path
         id="Path_18981"
         d="M70.581 64c-3.087-8.828-7.13-15-15.331-15S42.73 55.172 39.5 64z"
         class="cls-1"
         data-name="Path 18981"
         style="fill:#7d744b;fill-opacity:1" />
    </g>
    <g
       id="Group_9026"
       data-name="Group 9026">
      <path
         id="Rectangle_4680"
         d="M0 0h4.001v2H0z"
         class="cls-2"
         data-name="Rectangle 4680"
         transform="translate(64 7)"
         style="fill:#ceb247;fill-opacity:1" />
      <path
         id="Rectangle_4681"
         d="M0 0h2v4H0z"
         class="cls-2"
         data-name="Rectangle 4681"
         transform="translate(28 76)"
         style="fill:#ceb247;fill-opacity:1" />
      <path
         id="Path_18983"
         d="M45 36a10 10 0 1 0 10-10 10.011 10.011 0 0 0-10 10zm18 0a8 8 0 1 1-8-8 8.009 8.009 0 0 1 8 8z"
         class="cls-2"
         data-name="Path 18983"
         style="fill:#ceb247;fill-opacity:1" />
      <path
         id="Path_18984"
         d="M55.25 48c-9.716 0-14.022 8.367-16.687 15.656L38.071 65H71.99l-.465-1.33C68.815 55.921 64.763 48 55.25 48zm-14.3 15c3.577-9.094 7.9-13 14.3-13 6.362 0 10.45 3.788 13.906 13z"
         class="cls-2"
         data-name="Path 18984"
         style="fill:#ceb247;fill-opacity:1" />
      <path
         id="Path_18982"
         d="M87 30V16h-5V7H72v2h8v82H30v-7h-2v7h-9V9h9v63h2V9h30V7H17v86h65V72h5V58h-5v-7h5V37h-5v-7zm-5-12h3v10h-3zm3 42v10h-3V60zm0-21v10h-3V39z"
         class="cls-2"
         data-name="Path 18982"
         style="fill:#ceb247;fill-opacity:1" />
    </g>
  </g>
  <path
     id="Rectangle_4682"
     d="M0 0h100v100H0z"
     class="cls-3"
     data-name="Rectangle 4682" />
</svg>
