<?xml version="1.0" encoding="UTF-8" standalone="no"?>
<svg
   xmlns:dc="http://purl.org/dc/elements/1.1/"
   xmlns:cc="http://creativecommons.org/ns#"
   xmlns:rdf="http://www.w3.org/1999/02/22-rdf-syntax-ns#"
   xmlns:svg="http://www.w3.org/2000/svg"
   xmlns="http://www.w3.org/2000/svg"
   xmlns:sodipodi="http://sodipodi.sourceforge.net/DTD/sodipodi-0.dtd"
   xmlns:inkscape="http://www.inkscape.org/namespaces/inkscape"
   id="ic_dark_staking_off"
   width="100"
   height="100"
   viewBox="0 0 100 100"
   version="1.1"
   sodipodi:docname="img-empty-dark-staking-off.svg"
   inkscape:version="0.92.3 (2405546, 2018-03-11)">
  <metadata
     id="metadata9311">
    <rdf:RDF>
      <cc:Work
         rdf:about="">
        <dc:format>image/svg+xml</dc:format>
        <dc:type
           rdf:resource="http://purl.org/dc/dcmitype/StillImage" />
        <dc:title></dc:title>
      </cc:Work>
    </rdf:RDF>
  </metadata>
  <sodipodi:namedview
     pagecolor="#ffffff"
     bordercolor="#666666"
     borderopacity="1"
     objecttolerance="10"
     gridtolerance="10"
     guidetolerance="10"
     inkscape:pageopacity="0"
     inkscape:pageshadow="2"
     inkscape:window-width="1251"
     inkscape:window-height="769"
     id="namedview9309"
     showgrid="false"
     inkscape:zoom="4.72"
     inkscape:cx="101.8534"
     inkscape:cy="51.239376"
     inkscape:window-x="29"
     inkscape:window-y="0"
     inkscape:window-maximized="1"
     inkscape:current-layer="ic_dark_staking_off" />
  <defs
     id="defs9291">
    <style
       type="text/css"
       id="style9289">
            .cls-1{fill:#413d4a}.cls-2{fill:#a09ea5}.cls-3{fill:none}
        </style>
  </defs>
  <g
     id="Group_9043"
     data-name="Group 9043">
    <g
       id="Group_9038"
       data-name="Group 9038">
      <circle
         id="Ellipse_629"
         cx="14"
         cy="14"
         r="14"
         class="cls-1"
         data-name="Ellipse 629"
         transform="translate(36 56)"
         style="fill:#ceb347;fill-opacity:1" />
      <path
         id="Rectangle_4698"
         d="M0 0h18v18H0z"
         class="cls-1"
         data-name="Rectangle 4698"
         transform="translate(41 28)"
         style="fill:#ceb347;fill-opacity:1" />
    </g>
    <g
       id="Group_9042"
       data-name="Group 9042">
      <g
         id="Group_9039"
         data-name="Group 9039">
        <path
           id="Rectangle_4699"
           d="M0 0h2v4H0z"
           class="cls-2"
           data-name="Rectangle 4699"
           transform="translate(81 58)"
           style="fill:#7d744b;fill-opacity:1" />
        <path
           id="Path_18992"
           d="M81 91H19v-7h-2v9h66V66h-2z"
           class="cls-2"
           data-name="Path 18992"
           style="fill:#7d744b;fill-opacity:1" />
        <path
           id="Rectangle_4700"
           d="M0 0h2v4H0z"
           class="cls-2"
           data-name="Rectangle 4700"
           transform="translate(17 76)"
           style="fill:#7d744b;fill-opacity:1" />
        <path
           id="Path_18993"
           d="M80 27v2h7v16H60V29h16v-2h-9.695A10.992 10.992 0 1 0 50 13.444 10.992 10.992 0 1 0 33.695 27H11v20h6v25h2V47h62v7h2v-7h6V27zM60 9a9 9 0 0 1 0 18h-9v-9a9.01 9.01 0 0 1 9-9zm-29 9a9 9 0 0 1 18 0v9h-9a9.01 9.01 0 0 1-9-9zM17 45h-4V29h27v16zm25 0V29h16v16z"
           class="cls-2"
           data-name="Path 18993"
           style="fill:#7d744b;fill-opacity:1" />
      </g>
      <g
         id="Group_9041"
         data-name="Group 9041">
        <path
           id="Path_18994"
           d="M55 55.875V58a13 13 0 1 1-10 0v-2.125a15 15 0 1 0 10 0z"
           class="cls-2"
           data-name="Path 18994"
           style="fill:#7d744b;fill-opacity:1" />
        <g
           id="Group_9040"
           data-name="Group 9040">
          <path
             id="Rectangle_4701"
             d="M0 0h2v20H0z"
             class="cls-2"
             data-name="Rectangle 4701"
             transform="translate(49 52)"
             style="fill:#7d744b;fill-opacity:1" />
        </g>
      </g>
    </g>
  </g>
  <path
     id="Rectangle_4702"
     d="M0 0h100v100H0z"
     class="cls-3"
     data-name="Rectangle 4702" />
</svg>
