<?xml version="1.0" encoding="UTF-8" standalone="no"?>
<!-- Created with Inkscape (http://www.inkscape.org/) -->

<svg
   xmlns:dc="http://purl.org/dc/elements/1.1/"
   xmlns:cc="http://creativecommons.org/ns#"
   xmlns:rdf="http://www.w3.org/1999/02/22-rdf-syntax-ns#"
   xmlns:svg="http://www.w3.org/2000/svg"
   xmlns="http://www.w3.org/2000/svg"
   xmlns:sodipodi="http://sodipodi.sourceforge.net/DTD/sodipodi-0.dtd"
   xmlns:inkscape="http://www.inkscape.org/namespaces/inkscape"
   version="1.1"
   id="svg885"
   width="65.333336"
   height="65.333336"
   viewBox="0 0 65.333336 65.333336"
   sodipodi:docname="img-nav-logo.svg"
   inkscape:version="0.92.3 (2405546, 2018-03-11)">
  <metadata
     id="metadata891">
    <rdf:RDF>
      <cc:Work
         rdf:about="">
        <dc:format>image/svg+xml</dc:format>
        <dc:type
           rdf:resource="http://purl.org/dc/dcmitype/StillImage" />
        <dc:title></dc:title>
      </cc:Work>
    </rdf:RDF>
  </metadata>
  <defs
     id="defs889" />
  <sodipodi:namedview
     pagecolor="#ffffff"
     bordercolor="#666666"
     borderopacity="1"
     objecttolerance="10"
     gridtolerance="10"
     guidetolerance="10"
     inkscape:pageopacity="0"
     inkscape:pageshadow="2"
     inkscape:window-width="1251"
     inkscape:window-height="769"
     id="namedview887"
     showgrid="false"
     inkscape:zoom="5.6568542"
     inkscape:cx="77.833829"
     inkscape:cy="30.387422"
     inkscape:window-x="29"
     inkscape:window-y="0"
     inkscape:window-maximized="1"
     inkscape:current-layer="svg885" />
  <path
     style="fill:#ffffff;stroke-width:0.10110737"
     d="M 16.718824,48.710389 0.718329,32.709655 3.070214,30.359372 5.422089,28.009088 h 1.971779 1.971775 l 1.945347,1.947268 1.945344,1.947263 v 1.128608 c 0,2.447069 0.726685,5.465144 1.923392,7.98828 2.473197,5.214476 7.216712,9.073614 12.88884,10.485842 4.327013,1.077325 8.820043,0.606875 12.960864,-1.357092 2.98481,-1.415675 5.8023,-3.801827 7.54425,-6.389273 0.28887,-0.429094 0.54863,-0.781702 0.57724,-0.783582 0.0286,-0.0018 0.64249,0.588372 1.36418,1.311674 l 1.31217,1.315092 -9.55397,9.553977 -9.553981,9.553977 z M 30.773274,49.734 c -4.271232,-0.447658 -8.459217,-2.689469 -11.241149,-6.017349 -5.38825,-6.445682 -5.38825,-15.667564 0,-22.113246 5.023487,-6.009331 13.606564,-7.822801 20.669325,-4.367112 3.47939,1.702404 6.19808,4.420674 7.89243,7.891234 2.33411,4.780958 2.33411,10.284047 0,15.065002 -3.1846,6.523034 -10.047691,10.30373 -17.320606,9.541471 z m 5.131125,-1.738216 c 4.02641,-0.848235 7.498081,-3.209312 9.822341,-6.680147 1.10196,-1.645553 1.87126,-3.507586 2.32293,-5.622387 0.32855,-1.538382 0.32855,-4.528058 0,-6.066443 -1.36022,-6.368846 -6.09249,-11.094739 -12.371481,-12.354808 -1.63313,-0.327738 -4.385347,-0.327738 -6.018478,0 -5.533643,1.110492 -10.093675,5.108461 -11.842957,10.383212 -0.601911,1.815 -0.755248,2.831096 -0.755248,5.004817 0,2.173724 0.153337,3.189818 0.755248,5.004817 1.743211,5.256469 6.409662,9.355032 11.792397,10.357315 1.557912,0.290087 1.623738,0.294929 3.464228,0.254879 1.26929,-0.02762 1.94636,-0.09489 2.83102,-0.281255 z m -7.867315,-1.791305 c -0.432999,-0.403393 -0.176725,-1.108244 0.402927,-1.108244 0.5544,0 0.779982,0.695374 0.355069,1.094559 -0.291577,0.273917 -0.475126,0.277231 -0.757996,0.01368 z m 3.538751,0 c -0.437949,-0.408017 -0.199812,-1.108244 0.376924,-1.108244 0.57797,0 0.8166,0.685405 0.38107,1.094559 -0.29157,0.273917 -0.47511,0.277231 -0.757994,0.01368 z m 1.543504,-0.04201 c -0.28692,-0.286924 -0.31259,-0.524832 -0.0908,-0.841509 0.29772,-0.425052 0.98022,-0.240065 1.1106,0.301013 0.051,0.211665 0.008,0.330854 -0.19208,0.530814 -0.32266,0.322651 -0.51255,0.324872 -0.82774,0.0097 z m 2.52768,0 c -0.30088,-0.300884 -0.31644,-0.593512 -0.0459,-0.864007 0.40746,-0.407461 1.11217,-0.13403 1.11217,0.43152 0,0.226964 -0.43805,0.680661 -0.65718,0.680661 -0.0885,0 -0.27254,-0.111679 -0.40904,-0.248174 z m -6.112391,-0.459577 c 0,-0.471837 0.03369,-0.606647 0.151662,-0.606647 0.117948,0 0.151661,0.13481 0.151661,0.606647 0,0.471834 -0.03369,0.606643 -0.151661,0.606643 -0.117967,0 -0.151662,-0.134809 -0.151662,-0.606643 z m 0.950966,0.466548 c -0.02955,-0.07705 -0.03953,-0.338272 -0.02212,-0.580494 0.02325,-0.323584 0.07859,-0.449303 0.208603,-0.473964 0.152772,-0.02896 0.176932,0.0503 0.176932,0.580497 0,0.484016 -0.03285,0.614056 -0.154833,0.614056 -0.08518,0 -0.179031,-0.06304 -0.208593,-0.140095 z m 4.104395,-0.466548 c 0,-0.53924 0.0225,-0.606647 0.20222,-0.606647 0.17974,0 0.20222,0.06741 0.20222,0.606647 0,0.539237 -0.0225,0.606643 -0.20222,0.606643 -0.17975,0 -0.20222,-0.06741 -0.20222,-0.606643 z m 2.52769,0 c 0,-0.53924 0.0225,-0.606647 0.20221,-0.606647 0.17974,0 0.20222,0.06741 0.20222,0.606647 0,0.539237 -0.0225,0.606643 -0.20222,0.606643 -0.17974,0 -0.20221,-0.06741 -0.20221,-0.606643 z m -9.07716,-0.865149 c -0.467944,-0.32776 -0.17809,-1.157004 0.404424,-1.157004 0.27584,0 0.584141,0.370515 0.584141,0.70202 0,0.308101 -0.30143,0.612375 -0.606645,0.612375 -0.08649,0 -0.258334,-0.07082 -0.38192,-0.157391 z m 2.581009,0.0877 c -0.141101,-0.03688 -0.176941,-0.157384 -0.176941,-0.594914 0,-0.481271 0.02485,-0.548678 0.202212,-0.548678 0.179746,0 0.202221,0.06741 0.202221,0.606643 0,0.333654 -0.01139,0.601369 -0.02532,0.594919 -0.01393,-0.0065 -0.104904,-0.03255 -0.202212,-0.05797 z m 0.957742,-0.0877 c -0.467944,-0.32776 -0.17808,-1.157004 0.404429,-1.157004 0.26071,0 0.58415,0.363883 0.58415,0.657198 0,0.293315 -0.32344,0.657197 -0.58415,0.657197 -0.0988,0 -0.28084,-0.07082 -0.404429,-0.157391 z m 1.494109,-0.04482 c -0.11121,-0.111216 -0.20221,-0.315961 -0.20221,-0.454983 0,-0.305628 0.32698,-0.657198 0.61124,-0.657198 0.2451,0 0.70315,0.428118 0.70315,0.657198 0,0.229079 -0.45805,0.657197 -0.70315,0.657197 -0.11374,0 -0.29781,-0.09099 -0.40903,-0.202214 z m 1.56257,-0.04596 c -0.1365,-0.136495 -0.24817,-0.320556 -0.24817,-0.409025 0,-0.22908 0.45805,-0.657198 0.70316,-0.657198 0.28425,0 0.61123,0.35157 0.61123,0.657198 0,0.305627 -0.32698,0.657196 -0.61123,0.657196 -0.11375,0 -0.31849,-0.111676 -0.45499,-0.248171 z m 1.6476,0.178476 c -0.1411,-0.03688 -0.17695,-0.157384 -0.17695,-0.594914 0,-0.481271 0.0248,-0.548678 0.20222,-0.548678 0.17975,0 0.20222,0.06741 0.20222,0.606643 0,0.333654 -0.0114,0.601369 -0.0253,0.594918 -0.0138,-0.0065 -0.10489,-0.03255 -0.20221,-0.05797 z M 29.534628,44.33793 c 0,-0.4269 0.0352,-0.556091 0.151662,-0.556091 0.116423,0 0.151661,0.129191 0.151661,0.556091 0,0.426894 -0.03529,0.556089 -0.151661,0.556089 -0.116433,0 -0.151662,-0.129195 -0.151662,-0.556089 z m 7.583051,0 c 0,-0.488684 0.0246,-0.556091 0.20221,-0.556091 0.17771,0 0.20222,0.06741 0.20222,0.556091 0,0.488682 -0.0245,0.556089 -0.20222,0.556089 -0.17771,0 -0.20221,-0.06741 -0.20221,-0.556089 z m -9.143005,-0.917189 c -0.199228,-0.199234 -0.198268,-0.257185 0.01148,-0.697098 0.131972,-0.27674 0.231022,-0.357309 0.439314,-0.357309 0.53073,0 0.808283,0.693378 0.418682,1.045957 -0.233543,0.211357 -0.662428,0.215527 -0.869506,0.0085 z m 1.600952,0.01881 c -0.02955,-0.07706 -0.03953,-0.338276 -0.02212,-0.580494 0.02325,-0.323587 0.07859,-0.449304 0.208594,-0.473968 0.152781,-0.02896 0.176932,0.0503 0.176932,0.580498 0,0.484019 -0.03275,0.61406 -0.154824,0.61406 -0.08518,0 -0.179031,-0.06304 -0.208593,-0.140096 z M 30.646799,42.973 c 0,-0.537451 0.02391,-0.616866 0.176941,-0.587397 0.142805,0.02752 0.176942,0.140813 0.176942,0.587397 0,0.446587 -0.03417,0.559894 -0.176942,0.587396 -0.153016,0.02947 -0.176941,-0.04994 -0.176941,-0.587396 z m 1.0773,0.421746 c -0.368217,-0.406878 -0.0826,-1.02839 0.47256,-1.02839 0.31849,0 0.67451,0.320195 0.67451,0.606644 0,0.509018 -0.80142,0.803678 -1.14707,0.421746 z m 1.6526,-0.429159 c 0,-0.530241 0.0242,-0.60946 0.17694,-0.580386 0.13958,0.02658 0.18334,0.156239 0.20726,0.61406 0.0276,0.527551 0.0115,0.580386 -0.17694,0.580386 -0.18618,0 -0.20726,-0.06243 -0.20726,-0.61406 z m 1.01108,0.0074 c 0,-0.539237 0.0225,-0.606643 0.20221,-0.606643 0.17975,0 0.20222,0.06741 0.20222,0.606643 0,0.53924 -0.0225,0.606644 -0.20222,0.606644 -0.17974,0 -0.20221,-0.06741 -0.20221,-0.606644 z m 1.11218,0 c 0,-0.539237 0.0224,-0.606643 0.20221,-0.606643 0.17975,0 0.20223,0.06741 0.20223,0.606643 0,0.53924 -0.0225,0.606644 -0.20223,0.606644 -0.17974,0 -0.20221,-0.06741 -0.20221,-0.606644 z m 1.07729,0.421746 c -0.36145,-0.399407 -0.0842,-1.028389 0.45324,-1.028389 0.38853,0 0.62643,0.230376 0.62643,0.606643 0,0.557747 -0.70674,0.833817 -1.07967,0.421746 z M 28.52162,42.111248 c -0.104188,-0.125535 -0.09424,-0.228381 0.05374,-0.556672 0.09988,-0.221479 0.236376,-0.448157 0.303341,-0.503733 0.180612,-0.149888 0.655878,0.259185 0.655878,0.56453 0,0.508924 -0.712659,0.857776 -1.013008,0.495875 z m 1.417432,-0.452658 c 0,-0.471834 0.03369,-0.606645 0.151662,-0.606645 0.117957,0 0.151661,0.134811 0.151661,0.606645 0,0.471833 -0.03369,0.606643 -0.151661,0.606643 -0.117968,0 -0.151662,-0.13481 -0.151662,-0.606643 z m 0.979484,0.541344 c -0.03821,-0.03823 -0.06955,-0.312168 -0.06955,-0.608751 0,-0.476209 0.02419,-0.539238 0.207256,-0.539238 0.188151,0 0.204462,0.05289 0.176942,0.573379 -0.02805,0.530291 -0.145158,0.744136 -0.314683,0.57461 z m 0.839073,-0.188935 c -0.198226,-0.210996 -0.222489,-0.300742 -0.14267,-0.527688 0.0529,-0.150399 0.21859,-0.342169 0.36824,-0.426162 0.25089,-0.140816 0.2941,-0.136343 0.55476,0.05742 0.35683,0.265271 0.41494,0.664516 0.13713,0.942322 -0.27997,0.279984 -0.62766,0.262588 -0.91746,-0.04589 z m 1.52411,0.05814 c -0.53125,-0.531249 0.12476,-1.387047 0.74947,-0.977725 0.3506,0.229715 0.41592,0.540347 0.18032,0.857364 -0.25385,0.341572 -0.65646,0.393688 -0.92979,0.120361 z m 1.47679,0.128685 c -0.0371,-0.03707 -0.0674,-0.310064 -0.0674,-0.606647 0,-0.471834 0.0252,-0.539238 0.20221,-0.539238 0.17975,0 0.20222,0.06741 0.20222,0.606645 0,0.43813 -0.0375,0.606643 -0.13482,0.606643 -0.0742,0 -0.16514,-0.03033 -0.2022,-0.06741 z m 0.96063,-0.09386 c -0.3367,-0.235841 -0.27417,-0.835228 0.10942,-1.048845 0.24969,-0.139045 0.3064,-0.139045 0.55609,0 0.3836,0.213617 0.44613,0.813004 0.10942,1.048845 -0.12663,0.0887 -0.30099,0.161267 -0.38747,0.161267 -0.0865,0 -0.26082,-0.07257 -0.38746,-0.161267 z m 1.46805,0.09597 c -0.0382,-0.03823 -0.0696,-0.312168 -0.0696,-0.608751 0,-0.476209 0.0242,-0.539238 0.20726,-0.539238 0.18815,0 0.20447,0.0529 0.17694,0.573379 -0.0281,0.530291 -0.14516,0.744136 -0.31469,0.57461 z m -9.496703,-5.707309 -0.02635,-4.489792 -2.502412,-0.02705 -2.502402,-0.02705 v -5.003048 -5.003051 h 7.436148 7.436149 l -0.80355,1.541889 c -0.44195,0.848039 -2.6332,5.113505 -4.86946,9.478817 -2.236241,4.365313 -4.082982,7.955409 -4.103847,7.977994 -0.02089,0.0226 -0.04979,-1.97934 -0.06428,-4.448723 z m 1.4397,4.200421 c 0,-0.168086 0.276941,-0.753284 0.35648,-0.753284 0.02635,0 0.048,0.204745 0.048,0.454983 0,0.387577 -0.02993,0.454984 -0.202221,0.454984 -0.115219,0 -0.202222,-0.06741 -0.202222,-0.156683 z m 1.18802,0.04747 c -0.225083,-0.131096 -0.236452,-0.726798 -0.01807,-0.945201 0.370843,-0.370842 1.05441,-0.06917 1.05441,0.46533 0,0.476776 -0.58032,0.745489 -1.036349,0.479871 z m 1.700773,-0.04968 c -0.0873,-0.08738 -0.15889,-0.288875 -0.15889,-0.447759 0,-0.365708 0.23759,-0.606643 0.59819,-0.606643 0.54101,0 0.82445,0.689164 0.43021,1.045956 -0.23355,0.211357 -0.66243,0.215527 -0.86951,0.0085 z m 1.66105,-0.447759 c 0,-0.539241 0.0225,-0.606643 0.20221,-0.606643 0.17975,0 0.20222,0.0674 0.20222,0.606643 0,0.539237 -0.0225,0.606644 -0.20222,0.606644 -0.17975,0 -0.20221,-0.06741 -0.20221,-0.606644 z m 1.1784,0.421747 c -0.51892,-0.573403 0.26081,-1.352451 0.89183,-0.891042 0.21915,0.160255 0.25197,0.684565 0.0575,0.918891 -0.17926,0.215998 -0.74362,0.19944 -0.94932,-0.02784 z m 1.71882,0 c -0.51892,-0.573403 0.26081,-1.352451 0.89183,-0.891042 0.21917,0.160255 0.25197,0.684565 0.0575,0.918891 -0.17926,0.215998 -0.74362,0.19944 -0.94933,-0.02784 z m -6.640126,-1.283486 c -0.104179,-0.125531 -0.09425,-0.228381 0.05383,-0.556668 0.09987,-0.221479 0.236377,-0.448157 0.303332,-0.503734 0.172895,-0.143488 0.655869,0.258184 0.655869,0.545464 0,0.50877 -0.716038,0.872757 -1.012998,0.514938 z m 1.417432,-0.452618 c 0,-0.510281 0.02814,-0.606673 0.176941,-0.606825 0.152673,-2.75e-4 0.172233,0.08301 0.142683,0.606644 -0.0247,0.438838 -0.0738,0.606828 -0.176942,0.606828 -0.106983,0 -0.142682,-0.151783 -0.142682,-0.606647 z m 1.889444,0.541348 c -0.0382,-0.03823 -0.0696,-0.312168 -0.0696,-0.608751 0,-0.47621 0.0242,-0.539241 0.20726,-0.539241 0.18815,0 0.20446,0.05288 0.17694,0.573381 -0.028,0.530287 -0.14516,0.744137 -0.31469,0.574611 z m 0.94156,-0.136918 c -0.11122,-0.111217 -0.20221,-0.315961 -0.20221,-0.454983 0,-0.293316 0.32343,-0.657197 0.58415,-0.657197 0.34732,0 0.62914,0.294385 0.62914,0.657197 0,0.580941 -0.61042,0.855635 -1.01108,0.454983 z m 1.53358,0.04095 c -0.3367,-0.235837 -0.27417,-0.835224 0.10942,-1.048842 0.24969,-0.139048 0.3064,-0.139048 0.55609,0 0.3836,0.213618 0.44613,0.813005 0.10942,1.048842 -0.12663,0.0887 -0.30099,0.161271 -0.38747,0.161271 -0.0865,0 -0.26082,-0.07257 -0.38746,-0.161271 z m 1.46805,0.09597 c -0.0382,-0.03823 -0.0696,-0.312168 -0.0696,-0.608752 0,-0.476209 0.0242,-0.539241 0.20726,-0.539241 0.18815,0 0.20447,0.05289 0.17694,0.573382 -0.0281,0.530287 -0.14516,0.744137 -0.31469,0.574611 z m -4.92267,-0.5919 c 0,-0.488683 0.0246,-0.556091 0.20222,-0.556091 0.17771,0 0.20222,0.06741 0.20222,0.556091 0,0.488687 -0.0245,0.55609 -0.20222,0.55609 -0.17771,0 -0.20222,-0.06741 -0.20222,-0.55609 z m -1.715236,-0.985795 c 0.0019,-0.12512 0.06861,-0.34124 0.148076,-0.480263 0.140631,-0.246001 0.144593,-0.239912 0.148085,0.227492 0.0028,0.361087 -0.03407,0.480263 -0.148085,0.480263 -0.09092,0 -0.150231,-0.09109 -0.148076,-0.227492 z m 1.073716,0.04259 c -0.359578,-0.397329 -0.08395,-1.030198 0.44727,-1.026842 0.30145,0.0018 0.43347,0.08584 0.58356,0.370986 0.3161,0.60053 -0.57045,1.164578 -1.03083,0.655856 z m 1.65259,-0.421743 c 0,-0.539241 0.0225,-0.606644 0.20222,-0.606644 0.17974,0 0.20222,0.06741 0.20222,0.606644 0,0.539237 -0.0225,0.606644 -0.20222,0.606644 -0.17974,0 -0.20222,-0.06741 -0.20222,-0.606644 z m 1.07124,0.387461 c -0.21699,-0.309789 -0.20298,-0.547961 0.0469,-0.797853 0.29828,-0.298284 0.79901,-0.232143 1.00196,0.132347 0.13902,0.249672 0.13901,0.306415 -3e-5,0.55609 -0.21361,0.383595 -0.813,0.446124 -1.04884,0.109416 z m 1.65867,-0.387461 c 0,-0.539241 0.0225,-0.606644 0.20221,-0.606644 0.17974,0 0.20221,0.06741 0.20221,0.606644 0,0.539237 -0.0225,0.606644 -0.20221,0.606644 -0.17975,0 -0.20221,-0.06741 -0.20221,-0.606644 z m 1.11218,0 c 0,-0.539241 0.0225,-0.606644 0.20221,-0.606644 0.17974,0 0.20222,0.06741 0.20222,0.606644 0,0.539237 -0.0225,0.606644 -0.20222,0.606644 -0.17974,0 -0.20221,-0.06741 -0.20221,-0.606644 z m -5.7856,-0.815394 c -0.16096,-0.0938 -0.153609,-0.143355 0.0969,-0.654124 0.149063,-0.303946 0.30912,-0.552633 0.35568,-0.552633 0.13954,0 0.58098,0.48549 0.58098,0.638969 0,0.07845 -0.0943,0.262504 -0.20955,0.409026 -0.21689,0.275735 -0.52233,0.334583 -0.824005,0.158762 z m 1.53909,-0.515854 c 0,-0.456856 0.0342,-0.589793 0.15166,-0.589793 0.11748,0 0.15166,0.132937 0.15166,0.589793 0,0.456853 -0.0342,0.589794 -0.15166,0.589794 -0.11748,0 -0.15166,-0.132941 -0.15166,-0.589794 z m 1.13746,0.550873 c -0.08,-0.02868 -0.12639,-0.246453 -0.12639,-0.593001 0,-0.480262 0.0249,-0.547665 0.20222,-0.547665 0.17744,0 0.20221,0.06741 0.20221,0.550123 0,0.559686 -0.0526,0.671408 -0.27804,0.590543 z m 0.9858,-0.129593 c -0.11122,-0.111219 -0.20222,-0.31596 -0.20222,-0.454983 0,-0.298565 0.32493,-0.6572 0.59544,-0.6572 0.31405,0 0.64312,0.336278 0.64312,0.6572 0,0.320922 -0.32907,0.657197 -0.64312,0.657197 -0.10505,0 -0.28201,-0.09099 -0.39322,-0.202214 z m 1.61771,0 c -0.11122,-0.111219 -0.20222,-0.31596 -0.20222,-0.454983 0,-0.305627 0.32699,-0.6572 0.61124,-0.6572 0.24511,0 0.70316,0.428121 0.70316,0.6572 0,0.229079 -0.45805,0.657197 -0.70316,0.657197 -0.11374,0 -0.2978,-0.09099 -0.40902,-0.202214 z m -4.62505,-1.328948 c -0.17126,-0.171265 0.31548,-1.09763 0.57672,-1.09763 0.23146,0 0.50957,0.362411 0.50957,0.664024 0,0.439464 -0.7722,0.747695 -1.08629,0.433606 z m 1.86027,-0.06924 c -0.49048,-0.541967 0.17828,-1.283428 0.83877,-0.929948 0.26904,0.143991 0.34894,0.582775 0.15891,0.872785 -0.19742,0.301303 -0.74819,0.332857 -0.99768,0.05717 z m 1.95592,-0.421747 c 0,-0.537454 0.0239,-0.616866 0.17694,-0.587397 0.1428,0.02752 0.17694,0.140813 0.17694,0.587397 0,0.446587 -0.0342,0.559895 -0.17694,0.587397 -0.15301,0.02947 -0.17694,-0.04994 -0.17694,-0.587397 z m 1.3144,0 c 0,-0.539236 0.0225,-0.606644 0.20221,-0.606644 0.17974,0 0.20222,0.06741 0.20222,0.606644 0,0.539241 -0.0225,0.606648 -0.20222,0.606648 -0.17974,0 -0.20221,-0.06741 -0.20221,-0.606648 z m -4.38939,-0.840485 c -0.17198,-0.125756 -0.16635,-0.160214 0.10707,-0.65574 0.15872,-0.287655 0.31765,-0.523663 0.35321,-0.524465 0.0356,-7.24e-4 0.16635,0.08091 0.29068,0.181592 0.6048,0.489732 -0.12311,1.457701 -0.75096,0.998613 z m 1.6279,0.06744 c -0.0382,-0.03823 -0.0696,-0.312169 -0.0696,-0.608753 0,-0.476208 0.0242,-0.539236 0.20726,-0.539236 0.18814,0 0.20447,0.05289 0.17694,0.573377 -0.0281,0.530292 -0.14516,0.744137 -0.31468,0.574612 z m 1.11218,0 c -0.0382,-0.03823 -0.0696,-0.312169 -0.0696,-0.608753 0,-0.476208 0.0242,-0.539236 0.20727,-0.539236 0.18813,0 0.20446,0.05289 0.17693,0.573377 -0.028,0.530292 -0.14516,0.744137 -0.31468,0.574612 z m 1.14377,-0.136919 c -0.11122,-0.111216 -0.20222,-0.315957 -0.20222,-0.454984 0,-0.305623 0.32699,-0.657197 0.61124,-0.657197 0.24511,0 0.70316,0.428118 0.70316,0.657197 0,0.229083 -0.45805,0.657201 -0.70316,0.657201 -0.11374,0 -0.2978,-0.09099 -0.40902,-0.202217 z m -3.20492,-1.324323 c -0.093,-0.09297 -0.0638,-0.231766 0.12852,-0.611269 0.3092,-0.610183 0.5607,-0.643026 0.84149,-0.1099 0.19557,0.371316 -0.0505,0.77387 -0.49614,0.811551 -0.19448,0.01645 -0.40772,-0.02423 -0.47387,-0.09038 z m 2.09274,-0.495608 c 0,-0.53924 0.0224,-0.606644 0.20221,-0.606644 0.17975,0 0.20223,0.06741 0.20223,0.606644 0,0.539241 -0.0225,0.606644 -0.20223,0.606644 -0.17974,0 -0.20221,-0.06741 -0.20221,-0.606644 z m 1.61772,0 c 0,-0.53924 0.0225,-0.606644 0.20221,-0.606644 0.17974,0 0.20222,0.06741 0.20222,0.606644 0,0.539241 -0.0225,0.606644 -0.20222,0.606644 -0.17974,0 -0.20221,-0.06741 -0.20221,-0.606644 z m -3.09417,-0.850041 c -0.03,-0.07826 0.0377,-0.317129 0.15036,-0.530816 l 0.20497,-0.388525 0.005,0.530816 c 0.004,0.411211 -0.0304,0.530812 -0.15037,0.530812 -0.0852,0 -0.1794,-0.06403 -0.20944,-0.142287 z m 1.07936,-0.124115 c -0.2715,-0.345156 -0.26417,-0.497032 0.0386,-0.799818 0.27926,-0.279267 0.3781,-0.298062 0.69371,-0.131931 0.42853,0.225561 0.50332,0.662921 0.1703,0.995938 -0.28218,0.282174 -0.65081,0.25596 -0.90263,-0.06419 z m 1.72845,0.105135 c -0.33671,-0.235838 -0.27418,-0.835227 0.10942,-1.048842 0.24968,-0.139047 0.3064,-0.139047 0.55609,0 0.3836,0.213615 0.44613,0.813004 0.10942,1.048842 -0.12663,0.0887 -0.301,0.161267 -0.38746,0.161267 -0.0865,0 -0.26083,-0.07257 -0.38747,-0.161267 z m 1.56705,0.09386 c -0.0371,-0.03707 -0.0674,-0.310063 -0.0674,-0.606643 0,-0.471833 0.0252,-0.53924 0.20221,-0.53924 0.17974,0 0.20222,0.06741 0.20222,0.606643 0,0.438134 -0.0375,0.606644 -0.13482,0.606644 -0.0742,0 -0.16514,-0.03033 -0.20221,-0.06741 z m 1.14589,-0.53924 c 0,-0.471833 0.0337,-0.606643 0.15166,-0.606643 0.11796,0 0.15166,0.13481 0.15166,0.606643 0,0.471838 -0.0337,0.606644 -0.15166,0.606644 -0.11796,0 -0.15166,-0.134806 -0.15166,-0.606644 z m 1.080581,0.541349 c -0.0382,-0.03823 -0.0695,-0.312172 -0.0695,-0.608752 0,-0.476212 0.0242,-0.53924 0.20727,-0.53924 0.18814,0 0.20446,0.05289 0.17693,0.573381 -0.028,0.530288 -0.14516,0.744136 -0.31469,0.574611 z m 1.04879,-0.130793 c -0.53124,-0.531246 0.12476,-1.387048 0.74946,-0.977725 0.3506,0.22972 0.41594,0.540347 0.18033,0.857367 -0.25384,0.34157 -0.65646,0.393688 -0.92979,0.120358 z m -6.936741,-1.489225 c 0.0373,-0.148394 0.13318,-0.363259 0.21318,-0.477481 0.13532,-0.193195 0.14546,-0.174392 0.14546,0.269812 0,0.418258 -0.0264,0.477481 -0.21318,0.477481 -0.18049,0 -0.20278,-0.04137 -0.14546,-0.269812 z m 1.02158,0.0451 c -0.0866,-0.123589 -0.1574,-0.295459 -0.1574,-0.381928 0,-0.540756 0.71563,-0.800986 1.11217,-0.404431 0.40066,0.400648 0.12597,1.011074 -0.45498,1.011074 -0.23921,0 -0.38984,-0.06772 -0.49979,-0.224715 z m 1.66253,-0.389345 c 0,-0.530237 0.0242,-0.60946 0.17694,-0.580384 0.13957,0.02658 0.18334,0.156237 0.20726,0.614059 0.0276,0.52755 0.0115,0.580385 -0.17693,0.580385 -0.1862,0 -0.20727,-0.06242 -0.20727,-0.61406 z m 1.01108,0.0074 c 0,-0.539236 0.0224,-0.606643 0.20221,-0.606643 0.17975,0 0.20221,0.06741 0.20221,0.606643 0,0.539241 -0.0225,0.606644 -0.20221,0.606644 -0.17975,0 -0.20221,-0.06741 -0.20221,-0.606644 z m 1.06735,0.381933 c -0.0866,-0.12359 -0.15738,-0.295459 -0.15738,-0.381933 0,-0.540751 0.715621,-0.800981 1.112181,-0.404426 0.40064,0.400648 0.12595,1.01107 -0.454991,1.01107 -0.23923,0 -0.38984,-0.06772 -0.49981,-0.224711 z m 1.662541,-0.389345 c 0,-0.530241 0.0242,-0.609461 0.17694,-0.580385 0.13957,0.02658 0.18334,0.156237 0.20726,0.61406 0.0276,0.52755 0.0115,0.580381 -0.17694,0.580381 -0.18619,0 -0.20726,-0.06242 -0.20726,-0.614056 z m 1.03131,0.03367 c 0.0239,-0.457823 0.0677,-0.587498 0.20726,-0.61406 0.15278,-0.02907 0.17694,0.05015 0.17694,0.580385 0,0.551639 -0.0211,0.614056 -0.20726,0.614056 -0.1884,0 -0.2045,-0.05283 -0.17694,-0.580381 z M 35.442239,28.48187 c -0.0318,-0.08288 0.0361,-0.325532 0.15079,-0.539219 l 0.20864,-0.388524 -0.0245,0.497633 c -0.0241,0.48962 -0.21705,0.737404 -0.33497,0.43011 z m 1.19241,-0.0235 c -0.53578,-0.375269 -0.113,-1.259697 0.52554,-1.099435 0.68316,0.171461 0.55912,1.256825 -0.14362,1.256825 -0.0865,0 -0.25834,-0.07082 -0.38192,-0.15739 z m 1.67056,-0.01957 c -0.2955,-0.330486 -0.26372,-0.772301 0.0713,-0.991848 0.62617,-0.410288 1.29417,0.435649 0.76325,0.966574 -0.24939,0.249389 -0.62409,0.260735 -0.83462,0.02527 z m 1.65081,-0.08946 c -0.2715,-0.345155 -0.26417,-0.497036 0.0386,-0.799821 0.302791,-0.302785 0.454661,-0.310122 0.799811,-0.03862 0.32015,0.251827 0.34637,0.620449 0.0642,0.902627 -0.28217,0.282175 -0.65079,0.255959 -0.902631,-0.06419 z m 1.711501,0.06419 c -0.28196,-0.281954 -0.2298,-0.680234 0.12345,-0.942806 0.23139,-0.171982 0.31602,-0.185863 0.53231,-0.08731 0.14145,0.06444 0.3099,0.232904 0.37435,0.374353 0.0986,0.216286 0.0846,0.300926 -0.0873,0.532306 -0.26257,0.353258 -0.66085,0.405414 -0.94279,0.123463 z m -5.516801,-1.324811 c -0.10721,-0.173475 0.3681,-1.101767 0.56414,-1.101767 0.44247,0 0.66578,0.732153 0.31902,1.045956 -0.20893,0.189081 -0.77854,0.225076 -0.88316,0.05581 z m 1.61461,-0.02857 c -0.0296,-0.07705 -0.0395,-0.338274 -0.0221,-0.580494 0.0233,-0.323587 0.0786,-0.449306 0.2086,-0.473966 0.15278,-0.02896 0.17694,0.0503 0.17694,0.580497 0,0.484016 -0.0328,0.614056 -0.15483,0.614056 -0.0852,0 -0.17903,-0.06304 -0.2086,-0.140093 z m 1.12894,-0.01881 c -0.21452,-0.214529 -0.20082,-0.681785 0.0261,-0.887075 0.40411,-0.365712 1.02839,-0.08324 1.02839,0.465328 0,0.344328 -0.24689,0.580627 -0.60665,0.580627 -0.15888,0 -0.36037,-0.07149 -0.44776,-0.15888 z m 1.596071,-0.101721 c -0.35042,-0.534815 0.22002,-1.144846 0.81643,-0.8731 0.58818,0.267992 0.36181,1.133701 -0.29646,1.133701 -0.26372,0 -0.39101,-0.06379 -0.51997,-0.260601 z m 1.70294,-0.319779 c 0.0239,-0.457823 0.0677,-0.587498 0.20726,-0.61406 0.15278,-0.02907 0.17694,0.05015 0.17694,0.580384 0,0.551637 -0.0211,0.614056 -0.20726,0.614056 -0.1884,0 -0.2045,-0.05283 -0.17694,-0.58038 z m -5.280301,-0.888667 c -0.13567,-0.163473 -0.0604,-0.42767 0.26603,-0.933962 0.12708,-0.197097 0.17917,-0.212678 0.37182,-0.111249 0.28447,0.149765 0.37222,0.28297 0.37416,0.567943 0.003,0.492961 -0.71704,0.832697 -1.01201,0.477268 z m 1.68761,0.08725 c -0.0371,-0.03707 -0.0674,-0.31006 -0.0674,-0.606644 0,-0.471834 0.0253,-0.53924 0.20222,-0.53924 0.17975,0 0.20221,0.06741 0.20221,0.606647 0,0.438131 -0.0375,0.606644 -0.13481,0.606644 -0.0742,0 -0.16514,-0.03033 -0.20222,-0.06741 z m 1.01107,0 c -0.0371,-0.03707 -0.0674,-0.31006 -0.0674,-0.606644 0,-0.471834 0.0253,-0.53924 0.20221,-0.53924 0.17974,0 0.20221,0.06741 0.20221,0.606647 0,0.438131 -0.0375,0.606644 -0.1348,0.606644 -0.0742,0 -0.16515,-0.03033 -0.20222,-0.06741 z m 1.013181,0.0022 c -0.0382,-0.03823 -0.0695,-0.312168 -0.0695,-0.608748 0,-0.476209 0.0242,-0.539241 0.20727,-0.539241 0.18814,0 0.20446,0.05289 0.17693,0.573382 -0.028,0.530291 -0.14516,0.744137 -0.31469,0.57461 z m 1.04268,-0.136915 c -0.29637,-0.296359 -0.25746,-0.660856 0.0986,-0.924127 l 0.30086,-0.222425 -0.22335,-0.111347 c -0.56839,-0.283379 -0.3937,-1.168679 0.23061,-1.168679 0.33463,0 0.70543,0.307052 0.70543,0.584149 0,0.250862 -0.28344,0.629142 -0.47141,0.629142 -0.10525,0 -0.0537,0.0962 0.15739,0.293333 0.3692,0.344877 0.38762,0.495796 0.10447,0.855766 -0.25184,0.320148 -0.62045,0.346363 -0.90262,0.06419 z m -3.917921,-1.223361 c -0.28211,-0.104859 -0.28259,-0.17449 -0.005,-0.745572 0.2483,-0.511076 0.48491,-0.586341 0.73242,-0.232974 0.2073,0.295973 0.1995,0.617749 -0.0195,0.805875 -0.25743,0.221091 -0.45068,0.268238 -0.70776,0.172671 z m 1.30935,-0.570354 c 0.0239,-0.457823 0.0677,-0.587498 0.20726,-0.61406 0.15279,-0.02907 0.17694,0.05015 0.17694,0.580385 0,0.551636 -0.0211,0.614059 -0.20726,0.614059 -0.1884,0 -0.20451,-0.05284 -0.17694,-0.580384 z m 1.011071,0.459054 c -0.184171,-0.184169 -0.146331,-0.734677 0.0635,-0.924625 0.10169,-0.09204 0.29938,-0.167335 0.43931,-0.167335 0.5178,0 0.78782,0.698768 0.40418,1.045959 -0.21552,0.19504 -0.73184,0.221226 -0.90706,0.04601 z m -1.740981,-1.347052 c -0.10419,-0.125535 -0.0943,-0.228382 0.0537,-0.556673 0.0999,-0.221478 0.23638,-0.448156 0.30334,-0.503728 0.1806,-0.149892 0.65588,0.259181 0.65588,0.564526 0,0.508925 -0.71266,0.857775 -1.01301,0.495875 z m 1.61964,-0.445246 c 0,-0.551636 0.0211,-0.614056 0.207271,-0.614056 0.18839,0 0.2045,0.05283 0.17693,0.580385 -0.0239,0.457818 -0.0677,0.587494 -0.20726,0.614057 -0.152791,0.02907 -0.176941,-0.05015 -0.176941,-0.580386 z m 1.181701,0.533932 c -0.0382,-0.03823 -0.0695,-0.312168 -0.0695,-0.608752 0,-0.476208 0.0242,-0.539236 0.20725,-0.539236 0.18815,0 0.20447,0.05288 0.17695,0.573378 -0.028,0.530291 -0.14516,0.74414 -0.3147,0.57461 z m 1.11007,-0.0022 c -0.0371,-0.03707 -0.0674,-0.310063 -0.0674,-0.606647 0,-0.471834 0.0252,-0.53924 0.20221,-0.53924 0.17975,0 0.20222,0.06741 0.20222,0.606644 0,0.438134 -0.0375,0.606647 -0.13481,0.606647 -0.0742,0 -0.16514,-0.03033 -0.20222,-0.06741 z m 11.68531,12.477335 -1.84419,-1.846208 v -1.28022 c 0,-2.608608 -0.69503,-5.550031 -1.92338,-8.139894 C 46.2424,16.043476 36.908499,11.612714 28.068566,13.813652 c -2.974704,0.740632 -5.941577,2.286583 -8.213382,4.279756 -1.407474,1.234853 -2.419748,2.43799 -3.744794,4.450889 -0.01656,0.02509 -0.620217,-0.543268 -1.341563,-1.263013 l -1.311545,-1.30863 9.63095,-9.631345 9.630957,-9.63134865 16.000061,15.99982865 16.00008,15.99983 -2.34961,2.351202 -2.3496,2.351198 h -2.12509 -2.12509 z"
     id="path1572"
     inkscape:connector-curvature="0" />
</svg>
